<svg id="aromatherapy-icon" xmlns="http://www.w3.org/2000/svg" width="85.934" height="92.406" viewBox="0 0 85.934 92.406">
  <g id="Group_1" data-name="Group 1" transform="translate(0 0)">
    <path id="Path_1" data-name="Path 1" d="M57.443,62.819a8.142,8.142,0,0,0-.18-.816c-.1-.3-.084-.6-.18-.9a7.036,7.036,0,0,1-.36-.9,10.471,10.471,0,0,0-.54-1.8c-.18-.552-.312-1.188-.54-1.716-.528-1.188-1.056-2.34-1.62-3.517-.276-.576-.42-1.248-.72-1.8A3.522,3.522,0,0,0,51.67,50h-1.26c-1.512.756-1.74,1.836-2.352,3.157-.288.612-.624,1.188-.9,1.8-.252.552-.372,1.164-.636,1.716a32.662,32.662,0,0,0-1.176,3.517,11.057,11.057,0,0,0-.72,3.517h-.18a27.431,27.431,0,0,0,0,3.973A5.759,5.759,0,0,0,46.8,71.652h.36a26.374,26.374,0,0,1,1.26-3.973,21.255,21.255,0,0,1,.9-2.076,3.819,3.819,0,0,1,1.26-1.9h.9a3.791,3.791,0,0,1,1.44,2.076,15.437,15.437,0,0,0,.9,1.98c.012.036.18.528.18.54.06.192.12.348.18.54.108.336.264.66.36,1s.072.66.18,1c.048.132.12.384.18.54.084.24-.024.228.18.456h.18c.156-.336.636-.54.9-.816a7.349,7.349,0,0,0,.72-1.08,4.622,4.622,0,0,0,.72-2.076,12.5,12.5,0,0,0,.18-2.076c0-.768-.18-1.356-.18-2.076C57.707,63.383,57.515,63.107,57.443,62.819Z" transform="translate(-8.168 -3.803)" fill="#d2bbe6"/>
    <path id="Path_2" data-name="Path 2" d="M100.124,74.1a16.14,16.14,0,0,1-.18-2.352,28.652,28.652,0,0,0-.54-4.6,39.284,39.284,0,0,0-2.713-9.386c-.66-1.536-1.356-3.133-2.16-4.6-.252-.468-.648-.792-.9-1.26-.18-.324-.324-.768-.54-1.08-.54-.78-1.152-1.428-1.62-2.256h-.18v-.36h-.18v-.18h-.18c-.768-1.368-2.064-2.244-3.073-3.517a19.72,19.72,0,0,0-3.433-3.253,58.629,58.629,0,0,0-6.409-4.381c-.552-.312-1.14-.576-1.716-.852-.084-.048-.708-.276-.72-.36-.036-.192.612-.468.72-.54,1.1-.744,2.22-1.5,3.253-2.352A43.457,43.457,0,0,0,82.8,29.7a17.5,17.5,0,0,0,2.617-3.157,15.956,15.956,0,0,1,1.176-1.62c.372-.468.576-1.044.9-1.536a11.439,11.439,0,0,0,.9-1.62c.228-.492.708-.948.72-1.536h-63.9a5.554,5.554,0,0,0,.816,1.8c.336.552.648,1.14,1,1.716a29.768,29.768,0,0,0,2.533,3.613,43.654,43.654,0,0,0,6.049,6.049,20.672,20.672,0,0,0,1.716,1.176c.2.132,1.476.852,1.44,1.08-.024.18-1.512.756-1.716.852-.528.264-1.032.564-1.536.852a52.129,52.129,0,0,0-6.409,4.561,20.848,20.848,0,0,0-2.977,2.929,25.538,25.538,0,0,0-2.713,3.157h-.18v.18h-.18v.36h-.18c-.54.936-1.26,1.716-1.8,2.617-.516.864-1.02,1.764-1.536,2.617-.492.816-.948,1.752-1.356,2.617a22.625,22.625,0,0,0-1.08,2.617c-.24.78-.552,1.56-.816,2.352-.24.732-.384,1.524-.636,2.256a27.265,27.265,0,0,0-.9,4.693,32.777,32.777,0,0,0-.36,4.693c0,.468-.144.72-.18,1.176a4.475,4.475,0,0,0,.18,1.176,15.732,15.732,0,0,1,0,2.256,14.136,14.136,0,0,0,.276,2.352c.132.78.228,1.572.36,2.352A32.336,32.336,0,0,0,16.2,87.023a40.088,40.088,0,0,0,1.62,4.6c.192.42.348.852.54,1.26s.5.684.72,1.08c.4.72.612,1.524,1.08,2.256h.18c-.06.48.66,1.164.9,1.536.3.456.576.984.9,1.44a10.856,10.856,0,0,0,2.533,2.977H89.658a5.3,5.3,0,0,0,1.44-1.536c.324-.5.732-.936,1.08-1.44s.684-1.02,1-1.536c.216-.372.876-.984.816-1.44h.18A38.861,38.861,0,0,0,96.7,90.984a52.748,52.748,0,0,0,1.8-5.233c.228-.768.348-1.548.54-2.352.048-.18.108-.432.18-.636.036-.12.168-.468.18-.54.024-.18-.024-.36,0-.54a5.661,5.661,0,0,1,.18-.54c.132-.816.06-1.524.18-2.352a7.765,7.765,0,0,0,.18-1.26v-1.08a7.7,7.7,0,0,1,0-1.176A3.233,3.233,0,0,0,100.124,74.1ZM72.867,96.217v-9.29a2.882,2.882,0,0,0-1.44-2.8H60.06v-1a3.043,3.043,0,0,0-.18-1.08,1.8,1.8,0,0,0-.72-1.08,5.031,5.031,0,0,0-1.08-.456h-1.8c-.756.288-1.764.72-1.98,1.536a8.584,8.584,0,0,0,0,2.076H42.933a2.943,2.943,0,0,0-1.44,2.893v9.206H35.683a7.388,7.388,0,0,1-1.44-1.356c-.348-.48-.732-.948-1.08-1.44-.66-.948-1.128-2-1.716-2.977a15.453,15.453,0,0,1-1.356-2.977c-.324-.984-.828-1.968-1.08-2.977a51.408,51.408,0,0,1-.9-5.329,20.457,20.457,0,0,1,0-2.713c0-.984.18-1.776.18-2.713a8.753,8.753,0,0,1,.18-1.356c.06-.408.108-.8.18-1.26a9.443,9.443,0,0,1,.36-1.356c.132-.408.216-.84.36-1.26A24.329,24.329,0,0,1,31.722,63.1a29.552,29.552,0,0,1,1.62-2.617c.36-.456.708-.876,1.08-1.356.324-.408.816-.9,1.176-1.356a23.588,23.588,0,0,1,5.149-4.6,27.05,27.05,0,0,1,5.329-2.857c1.752-.7,3.565-1.092,5.329-1.74h1.26V48.4h1.08v-.18h2.893v-.18h.72v.18h2.893v.18h1.26v.18h1.26c1.992.744,4.129,1.068,6.049,2.028a41.113,41.113,0,0,1,5.953,3.565,27.816,27.816,0,0,1,4.969,4.969,25.221,25.221,0,0,1,3.433,5.413A25.409,25.409,0,0,1,85.889,75.2c0,.516.18.828.18,1.356v1.26c0,.528-.18.84-.18,1.356a8.2,8.2,0,0,1-.1,1.356,16.778,16.778,0,0,1-.456,2.617c-.156.468-.2.984-.36,1.44-.144.42-.216.84-.36,1.26a26.711,26.711,0,0,1-2.256,5.329c-.54.9-1.128,1.716-1.716,2.617a6.356,6.356,0,0,1-2.352,2.436H72.867Z" transform="translate(-14.206 -9.764)" fill="#d2bbe6"/>
    <path id="Path_3" data-name="Path 3" d="M21.669,16.287a4.573,4.573,0,0,1,.36,1.536H89.542a4.834,4.834,0,0,1,.36-1.62c.168-.5.192-1.032.36-1.536a2.571,2.571,0,0,0-1.08-3.157H22.389a2.571,2.571,0,0,0-1.08,3.157C21.477,15.183,21.489,15.747,21.669,16.287Z" transform="translate(-12.818 -11.51)" fill="#d2bbe6"/>
  </g>
</svg>
