<svg id="bath-icon" xmlns="http://www.w3.org/2000/svg" width="135.627" height="116.54" viewBox="0 0 135.627 116.54">
  <g id="Group_2" data-name="Group 2">
    <path id="Path_4" data-name="Path 4" d="M122.96,122.269c1.863-2.544-.149-5.195-2.515-7.05-2.18-1.7-5.068-2.4-7.565-3.587h-.838a26.233,26.233,0,0,0-4.211-1.29c-.615-.177-1.472-.247-1.677-.707a6.519,6.519,0,0,1,0-2v-7.7c0-2.862.093-5.477-1.118-7.845a9.75,9.75,0,0,0-2.795-3.463,20.628,20.628,0,0,0-4.211-2.262H96.352V86.1H82.34c-.894-.742-1.938-1.148-2.236-2.262a3.656,3.656,0,0,1,.708-2.527,18.89,18.89,0,0,1,1.826-2.527c.764-.866,1.919-1.519,2.515-2.527h.28c.429-.724,1.248-1.131,1.677-1.855h.28c.373-.636,1.472-1.413,1.4-2.12h.279A5.37,5.37,0,0,0,89.9,70.43h.28c-.075-.406.373-.9.559-1.2.261-.406.447-.8.708-1.2a13.68,13.68,0,0,1,2.236-2.385,18.571,18.571,0,0,0,2.106-2.527c.5-.689,1.416-1.378,1.4-2.262h.28c.168-1.272,1.23-2.456,1.4-3.728.168-1.254.391-2.474.559-3.728a13.944,13.944,0,0,0-.279-3.852c-.093-.636-.168-1.184-.279-1.855-.093-.565-.727-1.025-.559-1.732h-.28c-.168-1.272-1.3-2.226-1.4-3.463v-.265a20.541,20.541,0,0,0-1.826-8.764,23.684,23.684,0,0,0-2.515-4.523,21.634,21.634,0,0,0-1.956-2.12c-.689-.654-1.6-1.042-2.106-1.855h-.559V24.7h-.28a23.548,23.548,0,0,0-3.224-1.8,12.081,12.081,0,0,1-3.224-1.4h-.279v-.265h-.279l-.559-.8h-.559V20.18h-.279c-.522-.989-2.59-1.679-3.652-2.12-1.286-.53-2.609-.866-3.932-1.325H69.725V16.47H65.235v.265H63.558c-1.3.459-2.646.777-3.932,1.29A23.363,23.363,0,0,0,55.695,20.2h-.279v.265h-.279c-.261.495-.969.813-1.4,1.2A9.77,9.77,0,0,0,52.62,22.99c-.838.989-1.528,1.82-2.236,2.792a11.309,11.309,0,0,0-1.4,2.792c-.168.477-.41.989-.559,1.466a4.218,4.218,0,0,0-.28,1.325c.13.548-.224,1.042-.279,1.59-.037.477,0,.989,0,1.466a20.136,20.136,0,0,0,0,3.18,5.648,5.648,0,0,1-.279,3.18,11.59,11.59,0,0,0-.559,3.057c-.093,1.042-.279,2.032-.279,3.18,0,1.131.279,1.926.279,3.057a9.945,9.945,0,0,0,.559,3.18,8.625,8.625,0,0,1,.279,1.59c.075.477.5.919.559,1.466a6.544,6.544,0,0,1,.838,2.262,9.514,9.514,0,0,0,1.118,2.262c1.025,1.5,1.267,3.2,1.956,4.788.373.83.82,1.661,1.118,2.527a4.9,4.9,0,0,0,.429,1.2,2,2,0,0,1,.429,1.06H54.6c.093.707.913,1.166.838,1.855h.279a9.632,9.632,0,0,0,.708,1.06c.335.424.745.512.708,1.06h.279c.429.724,1.248,1.131,1.677,1.855h.559c.6,1.007,1.789,1.626,2.515,2.527A14.644,14.644,0,0,1,63.837,81.3a3.882,3.882,0,0,1,.559,2.527c-.186,1.219-1.006,1.5-1.956,2.262H50.1v.265H48.148a21.129,21.129,0,0,0-4.211,2.262A8.208,8.208,0,0,0,42.26,90.2a21.162,21.162,0,0,0-1.267,2c-1.323,2.085-.988,5.106-.988,7.7v7.845a5.633,5.633,0,0,1,0,1.855c-.2.459-1.062.53-1.677.707a25.076,25.076,0,0,0-4.211,1.29h-.838c-2.944,1.4-5.963,2.244-8.4,4.382a7.531,7.531,0,0,0-1.677,1.855,3.888,3.888,0,0,0-.559.8c-.037.124-.279,1.06-.279,1.06a6.115,6.115,0,0,0,1.956,3.993c4.435,4.134,11.2,4.788,16.807,6.767h.838c1.062-1.1-1.043-1.5-1.826-1.855-.95-.442-2.012-.936-2.944-1.467a15.779,15.779,0,0,1-3.074-2.385,6.586,6.586,0,0,1-1.956-2.915c-.391-1.113-.708-1.714-.279-2.915a7.739,7.739,0,0,1,1.4-2.915,17.83,17.83,0,0,1,3.074-2.65c.95-.671,2.18-.989,3.074-1.732h.559v4.523c0,1.307-.354,3.11,0,4.382.447,1.626,2.981,2.509,4.491,3.092,1.547.618,3.261.83,4.77,1.555h1.4v.265h1.4v.265h1.677v.265H55.4v.265h2.236v.265h2.236v.265H63.8v.265h7.286v.265h3.932v-.265H82.3v-.265h3.652v-.265H88.47v-.265h2.236v-.265h1.677V125.7h1.4v-.265h1.677v-.265h1.4c1.547-.724,3.3-.954,4.9-1.59,1.472-.583,3.913-1.5,4.342-3.057.373-1.307,0-3.163,0-4.523v-4.382h.559c1.956,1.572,4.379,2.226,6.018,4.258,1.23,1.52,2.217,3.516,1.547,5.442-.764,2.191-2.4,3.71-4.491,5.177-1.77,1.254-4.211,1.82-5.888,3.18a.834.834,0,0,0,.28.8h.559l2.236-.8h1.4c2.385-1.131,5.105-1.626,7.565-2.65C118.712,125.909,121.32,124.531,122.96,122.269ZM54.036,27.813a21.416,21.416,0,0,1,2.795-3.463,13.771,13.771,0,0,1,3.652-2.385c1.286-.6,2.665-.866,3.932-1.466H66.93v-.265h1.4V20.5h2.236l1.677.8H70.284v.265h-1.4c-2.534.9-5.758,1.466-7.845,3.18h-.559V25h-.559v.265h-.279c-2.5,1.572-5.553,3.622-7.006,6.113h-.279A8.673,8.673,0,0,1,54.036,27.813ZM52.21,54.775c-.186-.477-.242-.972-.429-1.466a20.56,20.56,0,0,1-.838-3.18c-.075-.512.075-1.078,0-1.59a4.618,4.618,0,0,1-.279-1.59,8.128,8.128,0,0,0,.279-1.59,9.633,9.633,0,0,1,0-1.466,21.466,21.466,0,0,1,2.236-6.237,25.873,25.873,0,0,1,1.956-3.18c.745-1.042,2.124-1.891,2.795-3.057h.28a8.525,8.525,0,0,1,2.795-2.262A27.6,27.6,0,0,1,63.949,27.5,63.789,63.789,0,0,1,69.968,25.3h1.4v-.265H74.16v-.265h1.4v.265h2.515c4.23,1.5,8.646,2.809,11.068,6.643a26.992,26.992,0,0,1,2.665,5.442,16,16,0,0,1,.559,2.65,16.394,16.394,0,0,1,.28,2.527H69.166v.265H67.489c-1.193.565-2.46.777-3.652,1.325a38.691,38.691,0,0,0-3.652,2.12h-.279a3.794,3.794,0,0,1-1.267,1.131A5.972,5.972,0,0,0,57.521,48.4a26.823,26.823,0,0,0-1.956,2.65,13.376,13.376,0,0,0-1.547,2.792c-.261.724-1.025,1.679-.838,2.527H52.62C52.751,55.853,52.378,55.217,52.21,54.775Zm40.21,3.869a10.923,10.923,0,0,0-.28-1.2,2.645,2.645,0,0,1-.279-1.06,6.232,6.232,0,0,0-.988-2.65c-.559-.866-.913-1.8-1.547-2.65a19.534,19.534,0,0,0-2.236-2.792c-.466-.442-.894-.936-1.4-1.325-.391-.3-.876-.477-1.118-.936h9.242a6.847,6.847,0,0,0,.708,1.855,6.626,6.626,0,0,1,.429,1.855c.037.318.224.548.28.936.037.3-.037.618,0,.936a5.173,5.173,0,0,1,0,1.855,25.326,25.326,0,0,1-.559,3.852c-.075.265-.447.548-.559.8-.149.3-.13.76-.28,1.06-.335.618-.783,1.078-1.118,1.732h-.279A18.259,18.259,0,0,0,92.42,58.645Zm-21.3,11.82h.838v.265h1.118v-.265h.838c.6.371,1.9,1.166,1.118,1.855H69.707C68.831,71.543,70.489,70.765,71.123,70.465ZM69.446,74.44h5.888c-.186,1.131-1.155,1.343-2.236,1.855H71.7C70.806,75.889,69.334,75.518,69.446,74.44Z" transform="translate(-5.254 -16.47)" fill="#d2bbe6"/>
    <path id="Path_5" data-name="Path 5" d="M93.832,75.031c-4.45-3.648-10.216-4.51-15.483-6.493H77.213l-.908-.454H75.17l-.908-.454H73.127l-.227.454v.454c.363.772,2.618,1.3,3.421,1.635,1.226.515,2.346,1.135,3.526,1.725a18.007,18.007,0,0,1,6.266,4.5,4.332,4.332,0,0,1,.908,3.194,5.719,5.719,0,0,1-1.937,3.072,25.237,25.237,0,0,1-6.372,4.147c-.848.439-5.978,2.058-5.8,2.906v.454h.227v.227h1.135v-.227h1.135l.908-.454h1.135c2.861-1.075,5.9-1.559,8.763-2.679,2.709-1.059,5.736-2.27,7.855-4.268a8.808,8.808,0,0,0,1.483-1.937,3.405,3.405,0,0,0,.348-1.937A4.987,4.987,0,0,0,93.832,75.031Z" transform="translate(39.722 26.147)" fill="#d2bbe6"/>
    <path id="Path_6" data-name="Path 6" d="M30.9,87.931a24.388,24.388,0,0,1-3.526-1.7c-2.179-1.317-4.646-2.3-6.266-4.389-1.665-2.134-1.362-4.329.575-6.266a23.229,23.229,0,0,1,6.372-4.147,33.194,33.194,0,0,1,3.072-1.423c.7-.272,2.679-.787,2.966-1.483v-.454l-.227-.454H32.735l-.908.454H30.691l-.908.454H28.648c-2.876,1.075-5.9,1.65-8.763,2.8-2.724,1.1-5.993,2.467-7.855,4.813a5.068,5.068,0,0,0-.908,3.875c.2,1.392,1.756,2.815,2.966,3.648a31.721,31.721,0,0,0,7.734,3.723c2.558.848,5.222,1.377,7.734,2.316h1.135l.908.454h1.135v.227H33.87v-.227H34.1V89.7C34.2,88.96,31.554,88.2,30.9,87.931Z" transform="translate(-11.058 26.142)" fill="#d2bbe6"/>
    <path id="Path_7" data-name="Path 7" d="M73.347,64.408a9.854,9.854,0,0,0,1.135,1.816,6.143,6.143,0,0,0,1.362,1.483h.227a23.523,23.523,0,0,1,.908-7.628,8.457,8.457,0,0,1,1.937-3.526,28.131,28.131,0,0,1,3.421-2.724,15.847,15.847,0,0,0,5.237-6.372c.954-2.028.893-4.662.575-6.947a20.144,20.144,0,0,0-1.135-3.421c-.424-1.286-1.589-2.074-2.27-3.3H84.29a24.1,24.1,0,0,1-.908,7.628,12.331,12.331,0,0,1-1.589,3.421A13.713,13.713,0,0,1,78.6,47.911c-2.376,1.771-4.525,3.708-5.691,6.266a17.7,17.7,0,0,0-.454,1.816,8.739,8.739,0,0,0-.227,1.589A4.416,4.416,0,0,0,72,58.49V59.4a11.161,11.161,0,0,0,.227,1.589A11.946,11.946,0,0,0,73.347,64.408Z" transform="translate(39.26 -1.111)" fill="#d2bbe6"/>
    <path id="Path_8" data-name="Path 8" d="M17.985,61.911c.076.242.136.53.227.8a14.9,14.9,0,0,0,.681,1.71,10.818,10.818,0,0,0,1.135,1.71,13.918,13.918,0,0,1,1.362,1.589h.227a24.66,24.66,0,0,1,.908-7.628,9.658,9.658,0,0,1,2.043-3.526,27.694,27.694,0,0,1,3.3-2.724,15.048,15.048,0,0,0,5.343-6.372,10.5,10.5,0,0,0,.681-3.421c.03-.394.227-.7.227-1.029,0-.121-.212-.56-.227-.8-.045-.56.091-1.15,0-1.71-.015-.076-.182-.333-.227-.454a2.276,2.276,0,0,1,0-.454,8.6,8.6,0,0,0-.348-.8c-.212-.621-.53-1.1-.8-1.71-.061-.121.061-.333,0-.454-.106-.182-.363-.272-.454-.454a5.354,5.354,0,0,0-.348-.8,13.78,13.78,0,0,1-1.256-1.589H30a48,48,0,0,1-.908,7.628,10.161,10.161,0,0,1-.454,1.029c-.061.2-.136.59-.227.8a9.329,9.329,0,0,1-1.029,1.71,13.568,13.568,0,0,1-3.193,2.966,14.457,14.457,0,0,0-5.57,6.145,13.71,13.71,0,0,0-.908,6.947C17.8,61.29,17.894,61.623,17.985,61.911Z" transform="translate(-7.705 -1.109)" fill="#d2bbe6"/>
  </g>
</svg>
