<svg id="calendar-icon" xmlns="http://www.w3.org/2000/svg" width="172.95" height="171.859" viewBox="0 0 172.95 171.859">
  <g id="Group_3" data-name="Group 3">
    <path id="Path_9" data-name="Path 9" d="M100.288,78.74c.29-.469.759-1.161,1-1.674.179-.4.156-.937.335-1.339a63.894,63.894,0,0,0,3.013-6.383c.67-2.031,1.763-4.04,2.009-6.2V62.8h.335v-1h.335v-.67H105.31v.335h-3.683V61.8H98.949v.335H96.606v.335H94.932V62.8H92.923v.335H91.249c-1.116.424-2.232.67-3.348,1-1.295.379-1.674.8-1.674,2.187a24.034,24.034,0,0,1-1.339,6.2c-.268.982-.357,1.919-.67,2.857-.312.915-.714,1.786-1,2.678a38.037,38.037,0,0,1-2.187,5.535c-.937,1.83-1.763,3.727-2.857,5.535-1.161,1.919-2.41,3.772-3.683,5.714a72.577,72.577,0,0,1-9.062,11.07c-1.763,1.763-3.549,3.37-5.379,5.044-.96.893-2.009,1.7-3.013,2.522-.67.536-2.009,1.228-2.344,2.009h2.344c2.366-.893,4.843-1.406,7.209-2.232a58.979,58.979,0,0,0,7.053-3.214A49.312,49.312,0,0,0,83.884,100.9,81.934,81.934,0,0,0,94.619,88.159c.737-1.116,1.5-2.053,2.187-3.192.6-1,1.094-2.053,1.674-3.013C99.083,80.86,99.6,79.811,100.288,78.74Z" transform="translate(48.49 56.359)" fill="#d2bbe6"/>
    <path id="Path_10" data-name="Path 10" d="M71.378,112.99c-1.049-.87-2.053-1.719-3.013-2.678-1.964-1.964-4.308-3.705-6.049-5.87-1.5-1.875-3.259-3.727-4.709-5.535a53.9,53.9,0,0,1-4.2-5.535c-2.232-3.727-4.33-7.388-6.2-11.249A44.334,44.334,0,0,1,45.2,76.744a34.881,34.881,0,0,1-1.339-5.714c-.022-.179-.268-.6-.335-.848a3.354,3.354,0,0,1,0-.67c-.045-.246-.246-1-.335-1.339a18.083,18.083,0,0,1-.335-2.522c-.268-1.786-3.459-1.919-5.044-2.522H36.136v-.335H34.462v-.335H32.453v-.335H30.11V61.79H27.766v-.335H24.418V61.12H21.74v.67h.335v1h.335v.335c-.045.67.469,1.25.67,1.852.179.558.156,1.116.335,1.674s.491,1.116.67,1.674c.2.58.446,1.295.67,1.853.982,2.366,2.12,4.732,3.192,7.053a51.6,51.6,0,0,0,3.526,6.2c1.361,2.1,2.634,4.285,4.017,6.383,1.473,2.21,3.415,4.263,5.044,6.383a42.1,42.1,0,0,0,6.383,6.383,66.1,66.1,0,0,0,12.41,8.214c4.129,2.076,8.459,3.08,12.744,4.709h2.344C73.9,114.508,72.271,113.727,71.378,112.99Z" transform="translate(-4.59 56.347)" fill="#d2bbe6"/>
    <path id="Path_11" data-name="Path 11" d="M66.375,87.965a10.472,10.472,0,0,1-.335,2.009c-.089.647.089,1.361,0,2.009a9.257,9.257,0,0,0-.335,1.674,29.632,29.632,0,0,1-.67,4.375c-.089.558-.223,1.049-.335,1.674-.089.536-.58,1.473-.67,2.009a33.2,33.2,0,0,1-2.187,7.879c-.58,1.339-1.049,2.812-1.518,4.2-.424,1.272-1.25,2.41-1.674,3.683a35.494,35.494,0,0,1-2.009,4.018c-.536,1.094-1.585,2.611-1.674,3.861H55.3c.357-.714,1.428-1.25,2.009-1.853.647-.647,1.317-1.272,2.009-1.853a54.425,54.425,0,0,0,4.017-4.2,55.873,55.873,0,0,0,6.718-8.727,65.355,65.355,0,0,0,8.057-15.445c.268-.781.4-1.562.67-2.344a13.091,13.091,0,0,0,.67-1.674,24.4,24.4,0,0,1,.67-3.683,24.349,24.349,0,0,0,.67-4.017c.089-.647-.112-1.361,0-2.009a10.541,10.541,0,0,0,.335-1c.022-.2,0-.469,0-.67V70.154a59.171,59.171,0,0,0-.67-7.879,53.09,53.09,0,0,0-1.339-7.722c-.379-1.339-.625-2.723-1-4.017-.179-.647-.134-1.228-.335-1.853a6.56,6.56,0,0,1-.67-1.853h-.67c-.357.737-1.406,1.161-2.009,1.674-.759.625-1.562,1.25-2.344,1.853-1.451,1.094-2.946,2.21-4.375,3.348-.737.6-1.317,1.384-2.009,2.009a19.9,19.9,0,0,0-2.344,2.009c-.8,1-.714,1.228-.335,2.344.223.647.446,1.361.67,2.009a48.237,48.237,0,0,1,1.674,8.057,51.065,51.065,0,0,1,1,7.722c0,1.607.335,2.812.335,4.375,0,1.361-.335,2.455-.335,3.683Z" transform="translate(44.839 38.742)" fill="#d2bbe6"/>
    <path id="Path_12" data-name="Path 12" d="M34.325,59.763a31.836,31.836,0,0,0-.67,4.375c0,1.5-.335,2.544-.335,4.017v9.709a5.382,5.382,0,0,0,0,.848c.045.335.29.6.335.848.112.759-.112,1.585,0,2.344a8.884,8.884,0,0,1,.335,1.674,12.783,12.783,0,0,0,.67,3.683c.446,1.317.558,2.7,1,4.017.4,1.228.937,2.477,1.339,3.683a67.871,67.871,0,0,0,3.683,7.723c1.361,2.768,3.236,5.178,4.866,7.879a33.793,33.793,0,0,0,2.857,3.861c1.094,1.339,2.433,2.455,3.526,3.861a22.588,22.588,0,0,0,3.683,3.772c.67.536,1.205,1.183,1.853,1.763.536.491,1.361.87,1.674,1.518h.335c-.179-1.5-1.384-3.169-2.009-4.531-.692-1.5-1.607-2.879-2.344-4.375a13.043,13.043,0,0,1-.335-1.339c-.067-.2-.246-.424-.335-.67-.268-.8-.737-1.562-1-2.344-.491-1.451-.848-2.9-1.339-4.375-.469-1.384-.937-2.768-1.339-4.2a29.771,29.771,0,0,1-1-3.861c-.379-2.567-.96-5.178-1.339-7.722-.112-.759.112-1.585,0-2.344a10.542,10.542,0,0,1-.335-1,7.541,7.541,0,0,1,0-1c0-1.361-.335-2.455-.335-3.683a26.82,26.82,0,0,1,0-4.017,10.536,10.536,0,0,0,.335-1,7.54,7.54,0,0,0,0-1,10.48,10.48,0,0,1,0-1.674c.4-2.656.96-5.446,1.339-8.057a60.771,60.771,0,0,1,2.009-7.879c.246-.87.536-1.361,0-2.187-.446-.692-1.406-1.116-2.009-1.674q-1.875-1.707-3.683-3.348A51.488,51.488,0,0,0,41.735,49.7c-1.138-.848-2.991-1.562-3.683-2.857h-.67c.2.826-.446,1.518-.67,2.187a11.794,11.794,0,0,0-.335,2.009c-.045.335-.625,1-.67,1.339s.045.67,0,1c-.089.625-.58,1.406-.67,2.009C34.749,56.951,34.526,58.245,34.325,59.763Z" transform="translate(13.647 38.755)" fill="#d2bbe6"/>
    <path id="Path_13" data-name="Path 13" d="M73.058,113.342c.156-.491.312-1,.513-1.518.089-.268.469-.96.513-1.183a17.832,17.832,0,0,1,.335-2.187,34.2,34.2,0,0,0,1.339-4.866,33.1,33.1,0,0,0,.67-4.866c0-.982.335-1.562.335-2.522a16.425,16.425,0,0,1,0-2.344,35.158,35.158,0,0,0,.335-4.709c0-1.674-.335-3.1-.335-4.866a34.968,34.968,0,0,0-.67-4.866,34.163,34.163,0,0,0-1-4.866c-.469-1.562-.536-3.147-1-4.709-.491-1.629-1.138-3.236-1.674-4.866a45.522,45.522,0,0,0-1.853-4.866c-1.473-3.169-2.857-6.495-4.531-9.575-.29-.513-.759-.826-1-1.339a9.035,9.035,0,0,0-.513-1.183,18.3,18.3,0,0,0-1.518-2.344,42.286,42.286,0,0,1-3.013-4.709h-.67C54.8,47.9,50.47,54.91,47.9,62.61c-.29.848-.737,1.652-1,2.522-.223.714-.424,1.451-.67,2.187a30.024,30.024,0,0,0-1.518,4.866c-.268,1.629-.937,3.236-1.183,4.866-.246,1.674-.491,3.147-.67,4.866a89.1,89.1,0,0,0-.67,9.575,22.879,22.879,0,0,0,.335,2.522c.089.781-.067,1.562,0,2.344.112,1.585.446,3.281.67,4.866a80.96,80.96,0,0,0,5.714,19.306,71.81,71.81,0,0,0,4.709,9.575c.96,1.607,1.875,3.236,2.857,4.866.469.781.982,1.786,1.518,2.522.424.58,1.451,1.406,1.339,2.187H60c-.112-.714,1.161-2.1,1.518-2.678.558-.915,1.138-1.786,1.674-2.678,1.094-1.808,2.21-3.526,3.192-5.379a74.254,74.254,0,0,0,5.044-10.914C71.9,116.466,72.522,114.9,73.058,113.342Z" transform="translate(26.848 31.511)" fill="#d2bbe6"/>
    <path id="Path_14" data-name="Path 14" d="M14.06,49.891v74.7c0,4.129,3.031,6.763,7.241,8.214H43c-.217-1.652-2.261-3.482-3.248-4.866a38.661,38.661,0,0,1-2.887-4.709,28.7,28.7,0,0,0-1.636-2.522c-.505-.8-.842-1.7-1.275-2.522-.842-1.585-1.708-3.1-2.526-4.709a36.255,36.255,0,0,1-1.8-4.709c-.626-1.741-1.492-3.147-1.8-5.044-.12-.759-.962-1.607-1.083-2.344a8.5,8.5,0,0,1,0-2.344c.313-1.9,2.454-3.326,4.33-4.2h4.715v.335h3.609v.335h2.526v.335h2.526v.335H46.61v.335h1.8v.335h1.8l1.443.67h1.8v.335h1.083V90.647a13.993,13.993,0,0,1,0-2.009,11.018,11.018,0,0,0,.361-2.009,53.863,53.863,0,0,1,1.083-8.392,30.86,30.86,0,0,1,1.083-4.2c.457-1.384.6-2.835,1.083-4.2A33.573,33.573,0,0,1,59.6,65.827c.794-1.518,2.622-2.254,4.33-2.857H66.1a47.262,47.262,0,0,1,8.132,5.111c1.4,1.027,2.791,2.053,4.162,3.1.65.513,1.155,1.183,1.8,1.674A6.032,6.032,0,0,1,82,74.376h.722c-.024-.982.77-1.964,1.083-2.857a24.854,24.854,0,0,1,1.443-2.857,33.65,33.65,0,0,1,1.636-3.013c.409-.647,1.347-1.9,1.275-2.678h.361c.12-.781.481-1.027.914-1.674.385-.58.553-1.272.914-1.853A37.719,37.719,0,0,1,92.874,56.1c.818-1.071,1.468-2.477,2.358-3.526,1.035-1.228,2.141-1.652,3.44-2.678h3.609a22.809,22.809,0,0,1,3.609,3.013,31.744,31.744,0,0,1,2.358,3.348c.77,1.183,1.564,2.41,2.358,3.526.65.893,1.732,2.076,1.8,3.192h.361c-.024,1.049,1.01,1.964,1.443,2.857.481.96.938,1.919,1.443,2.857.529,1,.986,1.986,1.443,3.013.337.781,1.179,1.763,1.083,2.678h.722c.433-.714,1.155-1,1.8-1.518.722-.536,1.275-1.295,2-1.853,1.275-1,2.67-1.964,3.97-2.946a47.264,47.264,0,0,1,8.132-5.111h2.165c1.756.6,3.464,1.361,4.33,2.857a22.409,22.409,0,0,1,1.443,4.017,26.05,26.05,0,0,1,1.083,4.375c.1.536.626,1.473.722,2.009.12.714.265,1.384.361,2.009a53.865,53.865,0,0,1,1.083,8.392,11.015,11.015,0,0,0,.361,2.009,14,14,0,0,1,0,2.009v7.209h1.083V97.5h1.8l1.443-.67h1.8v-.335h1.8v-.335h2.165v-.335h2.526V95.49h2.887v-.335h3.248V94.82h4.715c1.708,1.384,3.994,1.964,4.33,4.2a8.5,8.5,0,0,1,0,2.344c-.12.737-.962,1.607-1.083,2.344a30.241,30.241,0,0,1-1.8,5.044,36.258,36.258,0,0,1-1.8,4.709c-.842,1.585-1.684,3.1-2.526,4.709a20.838,20.838,0,0,1-1.443,2.678,21.6,21.6,0,0,0-1.443,2.344,51.12,51.12,0,0,1-2.887,4.709c-.938,1.361-3.128,3.214-3.248,4.866h21.7c4.21-1.473,7.241-4.084,7.241-8.214V29.38H14.06Z" transform="translate(-14.052 17.245)" fill="#d2bbe6"/>
    <path id="Path_15" data-name="Path 15" d="M186.261,24.214c-1.131-2.544-3.44-3.772-6.158-5.044h-8.684c0,2.41.072,4.754-1.083,6.718-1.516,2.544-3.921,3.683-6.88,4.709H160.93c-3.055-1.071-5.076-2.21-6.688-4.709-1.227-1.9-.914-4.352-.914-6.718H140.313c0,2.366.313,4.821-.914,6.718-1.612,2.5-3.633,3.638-6.688,4.709h-2.526c-2.935-1.027-5.365-2.165-6.88-4.709-1.155-1.964-1.083-4.285-1.083-6.718H109.569v3.348a3.752,3.752,0,0,1-.361,1.518c-.192.513-.1,1.228-.361,1.674-1.419,2.41-4.09,3.906-6.88,4.866H99.081c-2.863-1-5.268-2.366-6.519-4.866a6.72,6.72,0,0,1-1.083-3.348V19.17H78.825c0,2.41.072,4.754-1.083,6.718-1.516,2.544-3.921,3.683-6.88,4.709H68.336c-3.055-1.071-5.076-2.21-6.688-4.709-1.227-1.9-.914-4.352-.914-6.718H47.72c0,2.366.313,4.821-.914,6.718-1.612,2.5-3.633,3.638-6.688,4.709H37.592c-2.935-1.027-5.365-2.165-6.88-4.709C29.558,23.924,29.63,21.6,29.63,19.17H20.945c-2.718,1.25-5.028,2.5-6.158,5.044-.866,1.942-.722,4.084-.722,6.383v6.049H187.007V30.6C186.983,28.3,187.127,26.156,186.261,24.214Z" transform="translate(-14.056 -7.743)" fill="#d2bbe6"/>
    <path id="Path_16" data-name="Path 16" d="M74.409,27.318a9.149,9.149,0,0,0,0,2.344c.29.893,1.339,1.25,2.009,1.853h1.674c.8-.692,1.562-.937,2.009-1.853a5.082,5.082,0,0,0,.335-2.344V18.256a6.549,6.549,0,0,0-.335-2.344,4.826,4.826,0,0,0-.335-1c-.268-.379-.759-.312-1-.848H75.748c-.446.826-1.205,1.272-1.339,2.187a16.426,16.426,0,0,0,0,2.344v4.375C74.409,24.438,74.409,25.867,74.409,27.318Z" transform="translate(72.673 -14.038)" fill="#d2bbe6"/>
    <path id="Path_17" data-name="Path 17" d="M63.774,31.526h1.674c.625-.558,1.763-1,2.009-1.852a10.287,10.287,0,0,0,0-2.344V18.581a16.425,16.425,0,0,0,0-2.344c-.156-1.049-.826-1.25-1.339-2.187H63.1c-.246.513-.737.469-1,.848a4.826,4.826,0,0,0-.335,1,6.549,6.549,0,0,0-.335,2.344v9.062a5,5,0,0,0,.335,2.344C62.211,30.589,62.993,30.834,63.774,31.526Z" transform="translate(52.859 -14.05)" fill="#d2bbe6"/>
    <path id="Path_18" data-name="Path 18" d="M48.652,22.955V27.33c0,2.1.335,3.192,2.344,4.2h1.339c2.031-1,2.344-2.076,2.344-4.2V18.581c0-2.009.134-3.326-1.674-4.531H50.326c-1.83,1.205-1.674,2.522-1.674,4.531C48.652,20.054,48.652,21.5,48.652,22.955Z" transform="translate(34.803 -14.05)" fill="#d2bbe6"/>
    <path id="Path_19" data-name="Path 19" d="M35.909,27.318a9.149,9.149,0,0,0,0,2.344c.29.893,1.339,1.25,2.009,1.853h1.674c.8-.692,1.562-.937,2.009-1.853a5.082,5.082,0,0,0,.335-2.344V18.256a6.549,6.549,0,0,0-.335-2.344,4.825,4.825,0,0,0-.335-1c-.268-.379-.759-.312-1-.848H37.248c-.446.826-1.205,1.272-1.339,2.187a16.426,16.426,0,0,0,0,2.344v8.727Z" transform="translate(16.686 -14.038)" fill="#d2bbe6"/>
    <path id="Path_20" data-name="Path 20" d="M25.274,31.526h1.674c.625-.558,1.763-1,2.009-1.852a10.286,10.286,0,0,0,0-2.344V18.581a16.425,16.425,0,0,0,0-2.344c-.156-1.049-.826-1.25-1.339-2.187H24.6c-.246.513-.737.469-1,.848a4.826,4.826,0,0,0-.335,1,6.549,6.549,0,0,0-.335,2.344v9.062a5,5,0,0,0,.335,2.344C23.711,30.589,24.493,30.834,25.274,31.526Z" transform="translate(-3.125 -14.05)" fill="#d2bbe6"/>
  </g>
</svg>
