<svg id="face-mask-icon" xmlns="http://www.w3.org/2000/svg" width="79.098" height="101.594" viewBox="0 0 79.098 101.594">
  <g id="Group_5" data-name="Group 5" transform="translate(0 0)">
    <path id="Path_24" data-name="Path 24" d="M41.464,66.7h1.583v-.2h.99a2.026,2.026,0,0,0,.792-2.982h-.2v-.2h-.4v-.2H42.652v.2H41.464v.2H39.089v-.2H38.1v-.2h-.99v-.2h-.792v.2h-.4v.2h-.4v.2h-.2a4.41,4.41,0,0,0-.2,1.689c.185.673.99.99,1.583,1.293h.792v.2h1.385v.2h2.586A1,1,0,0,1,41.464,66.7Z" transform="translate(-15.267 4.968)" fill="#d2bbe6"/>
    <path id="Path_25" data-name="Path 25" d="M65.46,65.806a3.7,3.7,0,0,0,.4-.792,3.35,3.35,0,0,0-.594-1.491h-.2v-.2h-.4v-.2H63.283v.2h-.99v.2H59.509v-.2h-.99l-.792-.4h-.792l-.594.4h-.2v.2h-.2a1.819,1.819,0,0,0-.2,1.689,2.487,2.487,0,0,0,1.583,1.293h.792v.2h1.385v.2h2.784v-.2h1.385v-.2h.99A2.524,2.524,0,0,0,65.46,65.806Z" transform="translate(-8.693 4.968)" fill="#d2bbe6"/>
    <path id="Path_26" data-name="Path 26" d="M98.684,64.01a19.342,19.342,0,0,0-.594-3.181c-.172-.528-.422-1.056-.594-1.584a6.552,6.552,0,0,1-.4-1.492c-.686-1.544-1.36-2.877-2.178-4.369V52.2a43.41,43.41,0,0,0-.594-6.058,38.964,38.964,0,0,0-3.577-10.916,28.7,28.7,0,0,0-3.669-5.464A33.152,33.152,0,0,0,84.6,27.078c-.752-.752-2.072-1.373-2.587-2.283h-.4v-.2h-.2v-.2h-.4v-.2h-.2V24h-.2a19.8,19.8,0,0,0-4.765-2.587c-.766-.343-1.584-.634-2.376-.9-.66-.224-1.848-.422-2.178-1.1h-.2v-.2h-.2v-.2h-.2v-.2h-.2a5.88,5.88,0,0,0-1.782-1.584h-.2v-.2h-.2v-.2h-.4c-.422-.766-1.835-1.36-2.587-1.782a25.875,25.875,0,0,0-2.785-1.36c-1.808-.752-3.735-1.135-5.557-1.821H55.628v-.2H54.44v-.2H47.7v.2H46.31v.2H45.122c-1.821.686-3.775,1-5.557,1.782a37.166,37.166,0,0,0-5.557,3.181h-.2v.2h-.238v.2h-.4v.2h-.2c-.172.37-.792.7-1.1.99A12.439,12.439,0,0,1,30.7,19.476a24.387,24.387,0,0,0-2.178,2.336,19.9,19.9,0,0,0-3.273,4.765,31.953,31.953,0,0,0-2.178,4.857c-.264.779-.33,1.6-.594,2.376a6.742,6.742,0,0,0-.4,2.283h-.2v.4c0,.805-.2,1.36-.2,2.178v2.178a29.988,29.988,0,0,0,.2,4.263,6.638,6.638,0,0,1,.2,2.085c-.04.277-.356.634-.4.9a4.7,4.7,0,0,1-.2.99,24.792,24.792,0,0,0-.792,3.867,5.232,5.232,0,0,0-.2,1.1,4.778,4.778,0,0,1-.106.9c-.092.568,0,1.28-.106,1.887a6.232,6.232,0,0,0-.2.594,3.181,3.181,0,0,0,0,.5V60.71c0,.779.2,1.294.2,2.085a12.052,12.052,0,0,0,.2,1.782,22.874,22.874,0,0,0,.594,3.973c.211.634.185,1.346.4,1.98.106.3.106.581.2.9.066.238.356.66.4.9a11.516,11.516,0,0,0,.594,1.98c.172.515.185,1.465.594,1.887a6.5,6.5,0,0,0,.99,2.481c.356.779.607,1.6.99,2.376.792,1.624,1.584,3.194,2.376,4.857h.2v.2a3.892,3.892,0,0,1,.4,1.386c.053.409.343.99.4,1.386a19.32,19.32,0,0,0,.594,2.785,32.588,32.588,0,0,0,2.376,5.557c.33.541.581,1.069.9,1.584.317.541.752,1,1.1,1.584a9.711,9.711,0,0,0,.99,1.386,10.1,10.1,0,0,1,1.188,1.386h.2c-.079,1.109,2.429,2.217,2.983,3.181h.4c.528.95,1.914,1.5,2.785,2.085a24.917,24.917,0,0,0,2.785,1.584,55.509,55.509,0,0,0,5.755,2.283h.99v.2h.792v.2h1.188v.2h1.386v.2H61.74v-.2h1.584v-.2h.99v-.2h.99v-.2H66.1c1.953-.726,3.841-1.492,5.755-2.283a23.573,23.573,0,0,0,2.785-1.492c1.082-.62,1.94-1.492,2.983-2.178h.2c.356-.634,1.082-.977,1.584-1.492a8.724,8.724,0,0,0,1.584-1.689h.2c-.04-.488.713-1.043.99-1.386a8.535,8.535,0,0,0,.99-1.386h.2c-.066-.462.673-1.214.9-1.584.33-.541.541-1.056.9-1.584h.2c.119-.977.884-1.94,1.188-2.877.158-.475.436-.911.594-1.386a2.7,2.7,0,0,1,.9-1.492c1.808-1.558,4.013-3.247,5.055-5.359h.2v-.2h.2c-.026-.449.766-1.294.99-1.69.33-.554.62-1.148.99-1.689h.2c-.145-.581.383-1.043.594-1.492a13.434,13.434,0,0,0,.594-1.584c.172-.528.409-1.043.594-1.584.066-.211.356-.581.4-.792v-.4a.3.3,0,0,1,.2-.4c.158-1.03.449-1.967.594-2.983a11.051,11.051,0,0,0,.2-1.584v-.792a3.644,3.644,0,0,1,.2-.792A19.3,19.3,0,0,0,98.684,64.01ZM28.412,33.242a10.849,10.849,0,0,1,.594-1.584l.2-.594a5.543,5.543,0,0,1,.4-.792,21.664,21.664,0,0,1,4.065-5.86,27.913,27.913,0,0,1,5.86-4.567,38.6,38.6,0,0,1,5.953-2.376h.99v-.2h1.188v-.2h2.178v-.2H52.21v.2h2.178v.2h1.188c.752.277,1.518.449,2.283.673.37.106.739.224,1.1.356.634.238.581.277,0,.568H57.2v.2H55.615v.2h-.99v.2h-.99c-1.9.713-3.92,1.2-5.86,1.848-1,.33-1.9.818-2.877,1.228a10.894,10.894,0,0,0-2.983,1.492h-.2v.2h-.4v.2h-.4v.2h-.4v.2h-.2c-1.03.871-2.283,1.518-3.379,2.283-1.162.818-2.165,1.769-3.273,2.679A22.612,22.612,0,0,0,30.3,32.965a28.964,28.964,0,0,0-2.481,3.181h-.2A9.181,9.181,0,0,1,28.412,33.242Zm-.99,3.075h.2v.2h-.2Zm.884,37.71c-.264-.713-.475-1.452-.7-2.178-.211-.686-.37-1.4-.594-2.085a14,14,0,0,1-.594-2.178,51.889,51.889,0,0,1-.792-7.84A28.56,28.56,0,0,1,26.418,52c.106-.37.079-.726.2-1.1a7.738,7.738,0,0,0,.4-.99,9.412,9.412,0,0,1,.594-1.782,32.346,32.346,0,0,1,1.584-3.973,34.657,34.657,0,0,1,2.376-3.775c.436-.647.884-1.373,1.386-1.98a14.453,14.453,0,0,0,1.584-1.887h.2v-.2h.2v-.2h.2a10.6,10.6,0,0,1,2.376-2.481c.805-.66,1.637-1.267,2.481-1.887a33.8,33.8,0,0,1,4.963-3.128,48.086,48.086,0,0,1,5.055-2.27c1.637-.594,3.339-.95,4.963-1.558h.99v-.2h1.188v-.2H58.73v-.2h2.983V24h.594v.2H65.29v.2h1.386v.2h.99v.2h.99c2.455.924,5.068,1.518,7.339,2.877a32.312,32.312,0,0,1,6.454,5.266,18.772,18.772,0,0,1,2.283,3.181,14.906,14.906,0,0,1,1.782,3.273c.356,1.069.832,2.1,1.188,3.181s.475,2.191.792,3.273a22.756,22.756,0,0,1,.792,6.349H65.924V52H62.347v.2H57.2v.2h-1.98v.2H53.833v.2H52.645v.2h-.99l-.792.4h-.99c-1.426.713-3.023,1.043-4.461,1.742a34.368,34.368,0,0,0-4.461,2.627h-.2c-.29.634-1.36,1.122-1.887,1.584a15.568,15.568,0,0,0-2.085,2.085c-.488.647-1.069,1.333-1.584,1.98s-.9,1.294-1.386,1.98a33.493,33.493,0,0,0-2.178,4.065c-.172.33-.251.66-.4.99-.079.172-.132.317-.2.5,0,.013-.185.554-.2.594a5.281,5.281,0,0,0-.792,1.887v.2c-.33.356-.264.871-.4,1.294a5.44,5.44,0,0,0-.4,1.294h-.2C29.151,75.6,28.5,74.569,28.306,74.028ZM43.3,85.947c-2.046-1.016-3.7-2.257-4.263-4.369a6.634,6.634,0,0,1-.3-2.679.3.3,0,0,0,.2-.4v-.3a4.63,4.63,0,0,1,.2-.7c.224-.462.528-.818.792-1.294a5.835,5.835,0,0,1,1.584-1.584c.541-.409,1.294-.528,1.782-.99h1.188v-.2h.99v.2h1.188a7.488,7.488,0,0,1,3.471,2.587,7.785,7.785,0,0,1,.9,1.782,4.7,4.7,0,0,1,.2.9c.04.264.2.713.2.9,0,.238-.2.554-.2.9a2.647,2.647,0,0,1-.2.99,6.587,6.587,0,0,1-.99,1.782,6.853,6.853,0,0,1-3.379,2.481h-.594v.2H44.277v-.2Zm19.852,18.36a4.4,4.4,0,0,1-.99.99,10.859,10.859,0,0,1-2.178,1.1H57.2a19.356,19.356,0,0,1-2.283-1.135c-.62-.436-1.7-1.544-.5-2.033h8.144C63.059,103.554,63.4,103.779,63.152,104.307Zm-.5-5.662c.145.185.726.884.7,1.1-.053.317-.752.568-.99.7H54.823c-.33-.158-.924-.4-.99-.792-.053-.3.475-.779.7-.99a5.409,5.409,0,0,1,2.085-1.386h.99l.4.4h1.188l.4-.4h.99A5.331,5.331,0,0,1,62.65,98.644Zm10.229-12.7v.2H71.3v-.2h-.99a7.7,7.7,0,0,1-3.471-2.785,4.71,4.71,0,0,1-.792-1.782,5.618,5.618,0,0,1-.3-1.689,9.1,9.1,0,0,1,1.188-3.577c.805-1.28,2.31-1.848,3.577-2.481h.99v-.2h1.188v.2h.99a10.084,10.084,0,0,1,2.587,1.492A6.67,6.67,0,0,1,78.041,77.6a5.881,5.881,0,0,1,.2,1.294,3.733,3.733,0,0,1,.2,1.188c-.053.383-.238.884-.3,1.294a6.833,6.833,0,0,0-.3,1.188h-.2c.04.713-1.069,1.61-1.584,2.085a9.495,9.495,0,0,1-2.178,1.294h-.99Zm16.077-3.379a30.469,30.469,0,0,0-.4-4.461c-.106-.779-.224-1.518-.4-2.283-.079-.383-.132-.673-.2-1.1-.066-.37-.383-.647-.4-1.1v-.2a10.508,10.508,0,0,1-.792-1.98,15.828,15.828,0,0,0-.99-2.085A35.346,35.346,0,0,0,83.611,65.4a29.817,29.817,0,0,0-7.537-7.642H90.963A22.446,22.446,0,0,1,93.14,64.01a20.031,20.031,0,0,1,.4,2.983v3.181a23.273,23.273,0,0,1-.4,3.181,19.892,19.892,0,0,1-.792,2.983,28.269,28.269,0,0,1-1.386,3.181,15.125,15.125,0,0,1-.99,1.584c-.211.33-.832,1.069-.792,1.491h-.224Z" transform="translate(-20.071 -11.49)" fill="#d2bbe6"/>
  </g>
</svg>
