<svg id="icons" xmlns="http://www.w3.org/2000/svg" width="177.979" height="146.275" viewBox="0 0 177.979 146.275">
  <path id="pic" d="M177.979,31.255C177.979,15.165,164.631,2,148.316,2H29.663C13.348,2,0,15.165,0,31.255V119.02c0,16.09,13.348,29.255,29.663,29.255H148.316c16.315,0,29.663-13.165,29.663-29.255Zm-133.484,0A14.629,14.629,0,1,1,29.663,45.883,14.774,14.774,0,0,1,44.495,31.255ZM163.147,119.02a14.774,14.774,0,0,1-14.832,14.628H32.629a7.3,7.3,0,0,1-5.191-12.433l26.7-26.33a7.238,7.238,0,0,1,10.382,0l4.449,4.388a7.238,7.238,0,0,0,10.382,0L128.293,51a7.238,7.238,0,0,1,10.382,0l22.247,21.941a6.6,6.6,0,0,1,2.225,5.12Z" transform="translate(0 -2)" fill="#d2bbe6"/>
</svg>
