<svg id="mendala-logo" xmlns="http://www.w3.org/2000/svg" width="98.623" height="110.67" viewBox="0 0 98.623 110.67">
  <path id="Path_117" data-name="Path 117" d="M125.584,73.639a4.114,4.114,0,0,1-3.506-1.791c-.891-1.492-.155-4.307-.155-4.307s2.787.674,3.709,2.152A3.9,3.9,0,0,1,125.584,73.639Z" transform="translate(-95.329 -49.239)" fill="#565454"/>
  <path id="Path_118" data-name="Path 118" d="M271.289,71.909a3.9,3.9,0,0,1-3.52,1.788,4.113,4.113,0,0,1-.037-3.938c.911-1.481,3.746-2.13,3.746-2.13S272.169,70.408,271.289,71.909Z" transform="translate(-199.85 -49.303)" fill="#565454"/>
  <path id="Path_119" data-name="Path 119" d="M125.088,312.921c-1.069,1.371-3.907,1.76-3.907,1.76s-.443-2.877.6-4.268a4.121,4.121,0,0,1,3.673-1.424A3.9,3.9,0,0,1,125.088,312.921Z" transform="translate(-94.934 -222.56)" fill="#565454"/>
  <path id="Path_120" data-name="Path 120" d="M271.832,312.664s-2.857-.55-3.819-2a4.115,4.115,0,0,1-.1-3.935,3.906,3.906,0,0,1,3.582,1.659C272.422,309.86,271.832,312.664,271.832,312.664Z" transform="translate(-200.004 -220.949)" fill="#565454"/>
  <path id="Path_121" data-name="Path 121" d="M112.113,57.851c8.378-7.627,14.011-23.122,14.279-23.872l.6-1.676-1.718-.474c-.855-.237-20.3-5.509-31.319-.951-1.168-11.63-14.471-26.261-15.063-26.9l-1.2-1.314L76.47,3.96c-.6.637-13.96,15.012-15.368,26.8-11.066-4.341-30.165.838-31.014,1.072L28.37,32.3l.6,1.676c.271.756,5.957,16.406,14.4,23.991-8.445,7.585-14.132,23.235-14.4,23.988l-.6,1.678,1.718.474c.849.237,19.94,5.41,31.006,1.075,1.379,11.794,14.778,26.208,15.376,26.845l1.219,1.3,1.2-1.314c.6-.649,14.1-15.506,15.088-27.181,11.024,4.539,30.439-.722,31.294-.962l1.718-.471-.6-1.678C126.124,80.973,120.491,65.476,112.113,57.851Zm-1.267-1.075a17.581,17.581,0,0,0-2.621-1.721,27.546,27.546,0,0,0-17.72-2.7l10.905-5.735c1.12.829,5.063,3.207,10.544.324,3.391-1.783,5.752-8.008,6.011-8.713l.144-.392,6.307-3.317C122.962,38.258,117.794,50.574,110.847,56.777Zm-1.309,1.075a15.21,15.21,0,0,1-2.082,1.331c-12.324,6.485-24.089.536-27.254-1.331,3.165-1.867,14.93-7.814,27.254-1.334A15.793,15.793,0,0,1,109.538,57.851Zm-2.527-20.31c2.3-1.21,9.4.124,9.4.124s-2.3,6.279-5.227,7.819c-5.433,2.855-8.984-.347-8.984-.347A8.893,8.893,0,0,1,107.01,37.542ZM94.038,32.648c8.885-4.11,24.927-.671,29.531.454l-5.918,3.114-.934-.175c-1.281-.24-7.805-1.368-10.476.037a10.523,10.523,0,0,0-5.692,9.094v.037L83.953,53.936c.742-.66,1.515-1.4,2.288-2.24A27.954,27.954,0,0,0,94.038,32.648Zm-14.572,22.7c.384-4.519,2.409-15.678,12.9-21.813C91.877,45.632,83.274,52.774,79.466,55.352ZM92.351,82.158c-10.251-6.005-12.411-16.806-12.86-21.5C83.282,63.228,91.742,70.268,92.351,82.158ZM78.456,5.972c2.956,3.408,13.331,16.014,13.9,25.672a27.246,27.246,0,0,0-12.95,15.827,33.8,33.8,0,0,0-.953,3.509V31.968c1.252-.606,5.193-2.993,5.193-9.182,0-3.833-4.412-8.818-4.914-9.376l-.279-.307ZM82,22.786c0,6.138-4.485,7.791-4.485,7.791a8.89,8.89,0,0,1-4.488-7.791c0-2.6,4.488-8.265,4.488-8.265S82,19.48,82,22.786ZM76.8,6.062v6.691l-.59.742c-.807,1.021-4.843,6.271-4.843,9.292a10.512,10.512,0,0,0,5.4,9.269l.034.017V50.5c-.22-.956-.5-1.972-.849-3.03A27.21,27.21,0,0,0,62.736,31.5c-.017-.006-.031-.017-.048-.023C63.517,21.771,73.717,9.551,76.8,6.062Zm-.9,49.355C71.991,52.9,62.939,45.75,62.642,33.33,73.5,39.451,75.531,50.892,75.9,55.417ZM60.984,32.493v0c0,.071,0,.135,0,.206a27.229,27.229,0,0,0,7.983,19.133c.635.66,1.269,1.261,1.887,1.808L54.815,45.209v-.037a10.523,10.523,0,0,0-5.692-9.094c-2.671-1.4-9.2-.276-10.474-.037l-.934.175L31.794,33.1C36.339,31.99,52.031,28.625,60.984,32.493ZM74.958,57.97c-3.439,1.986-14.978,7.565-27.048,1.213a14.674,14.674,0,0,1-1.924-1.213,14.7,14.7,0,0,1,1.924-1.216C59.98,50.4,71.519,55.984,74.958,57.97Zm-21.8-12.832s-3.551,3.2-8.987.347c-2.925-1.54-5.224-7.819-5.224-7.819s7.106-1.334,9.4-.124A8.886,8.886,0,0,1,53.162,45.138ZM30.945,34.524l6.31,3.317.144.392c.257.705,2.615,6.931,6.005,8.713,5.481,2.883,9.427.5,10.547-.324l11.6,6.1a27.612,27.612,0,0,0-18.408,2.573A17.023,17.023,0,0,0,44.66,56.9C37.639,50.743,32.412,38.284,30.945,34.524ZM44.66,59.039a16.791,16.791,0,0,0,2.479,1.608,27.6,27.6,0,0,0,18.4,2.575L53.952,69.315c-1.12-.826-5.066-3.2-10.547-.319C40.014,70.779,37.656,77,37.4,77.707l-.144.392-6.31,3.32C32.412,77.653,37.639,65.2,44.66,59.039ZM48.352,78.4c-2.3,1.21-9.4-.124-9.4-.124s2.3-6.276,5.224-7.816c5.436-2.857,8.987.344,8.987.344A8.883,8.883,0,0,1,48.352,78.4Zm12.631,5.049c-8.956,3.87-24.645.5-29.189-.606l5.921-3.117.934.175c1.278.24,7.8,1.368,10.474-.037a10.523,10.523,0,0,0,5.692-9.094v-.037l16.172-8.5c-.66.578-1.343,1.221-2.022,1.929a27.229,27.229,0,0,0-7.983,19.133C60.981,83.34,60.981,83.394,60.984,83.447ZM75.9,60.576c-.386,4.558-2.446,15.935-13.258,22.03C62.964,70.226,71.991,63.09,75.9,60.576Zm.9,49.352c-3.092-3.5-13.32-15.754-14.118-25.463l.051-.025A27.21,27.21,0,0,0,75.954,68.469c.35-1.055.626-2.073.849-3.027V83.918l-.034.017a10.512,10.512,0,0,0-5.4,9.269c0,3.021,4.037,8.271,4.843,9.292l.59.742v6.691Zm.708-8.46S73.023,95.8,73.023,93.2a8.89,8.89,0,0,1,4.488-7.791S82,87.066,82,93.2C82,96.51,77.511,101.469,77.511,101.469Zm.945,8.55v-7.131l.279-.307c.5-.559,4.914-5.543,4.914-9.376,0-6.189-3.941-8.575-5.193-9.182V64.72a33.646,33.646,0,0,0,.953,3.512A27.249,27.249,0,0,0,92.373,84.068C91.987,93.76,81.44,106.577,78.456,110.019ZM94.035,83.058a27.984,27.984,0,0,0-7.794-18.764,34.322,34.322,0,0,0-3.134-2.973l17.441,9.173v.039a10.517,10.517,0,0,0,5.692,9.091c2.671,1.4,9.2.276,10.476.039l.934-.175,5.918,3.114C118.965,83.726,102.923,87.168,94.035,83.058ZM102.2,70.565s3.551-3.2,8.984-.344c2.928,1.54,5.227,7.819,5.227,7.819s-7.1,1.331-9.4.121A8.89,8.89,0,0,1,102.2,70.565Zm15.909,7.3-.144-.395c-.26-.7-2.62-6.928-6.011-8.711-5.481-2.883-9.424-.5-10.544.322l-10.9-5.732a27.54,27.54,0,0,0,17.712-2.7,17.342,17.342,0,0,0,2.621-1.718c6.948,6.2,12.115,18.516,13.571,22.253Z" transform="translate(-28.37 -2.66)" fill="#00c9b7"/>
  <path id="Path_122" data-name="Path 122" d="M346.434,193.569s-2.07,2.045-3.811,2.017a4.117,4.117,0,0,1-3.3-2.141,3.9,3.9,0,0,1,3.4-2.011C344.457,191.5,346.434,193.569,346.434,193.569Z" transform="translate(-251.608 -138.183)" fill="#565454"/>
  <path id="Path_123" data-name="Path 123" d="M48.111,193.625a4.118,4.118,0,0,1-3.393,2C42.98,195.577,41,193.447,41,193.447s2.065-1.991,3.805-1.977A3.9,3.9,0,0,1,48.111,193.625Z" transform="translate(-37.437 -138.211)" fill="#565454"/>
</svg>
