<svg xmlns="http://www.w3.org/2000/svg" width="76.928" height="46.72" viewBox="0 0 76.928 46.72">
  <g id="lotus-icon" transform="translate(-11.044 -26.77)">
    <g id="Group_16" data-name="Group 16">
      <g id="Group_15" data-name="Group 15">
        <path id="Path_124" data-name="Path 124" d="M87.7,54.69a3.058,3.058,0,0,0-.6-.3c-1-.5-1.99-.98-3.01-1.43-1.91-.85-3.91-1.37-5.87-2.11h-.75c.1.47-.31,1.16-.45,1.58-.1.3-.06.59-.15.9-.04.15-.24.31-.3.45-.04.08.04.22,0,.3-.54,1.09-.97,2.22-1.5,3.31a15,15,0,0,1-1.05,1.5c-.3.45-.56.9-.9,1.35a16.358,16.358,0,0,1-2.56,2.86,43.986,43.986,0,0,1-5.87,4.14,30.817,30.817,0,0,1-5.71,2.43c-.5.17-1,.32-1.5.46-.17.05-.64.12-.75.26-.16.2.07.19.38.3.96.36,1.97.54,2.93.9h.75v.15h.9v.15h1.05v.15h1.2v.15H68v-.15h1.05v-.15H70.1v-.15h.6v-.15h.45a24.512,24.512,0,0,0,6.62-3.23,26.169,26.169,0,0,0,5.56-5.56c.21-.31.44-.52.68-.83.14-.18.24-.51.38-.68.4-.49.68-.96,1.05-1.43a15.388,15.388,0,0,0,1.65-2.93,12.345,12.345,0,0,0,.75-1.5C87.97,55.08,88.11,55.04,87.7,54.69Z" fill="#d2bbe6"/>
        <path id="Path_125" data-name="Path 125" d="M40.93,69.98c-.55-.17-1.12-.34-1.65-.55A32.525,32.525,0,0,1,27.7,62.36a20.331,20.331,0,0,1-4.06-5.71,14.985,14.985,0,0,1-.75-1.5,14.411,14.411,0,0,0-.53-1.43,9.892,9.892,0,0,1-.53-1.5,6.783,6.783,0,0,0-.15-.68,1.2,1.2,0,0,1-.15-.68h-.75c-2.21.83-4.46,1.45-6.62,2.41-.51.23-1,.5-1.5.75a5.9,5.9,0,0,0-1.43.75c-.5.5.14,1.1.38,1.58.21.44.39.92.6,1.35.14.28.37.57.53.83.12.21.25.47.38.68.3.49.68.93.98,1.43a24.176,24.176,0,0,0,2.18,2.93,27.969,27.969,0,0,0,5.71,5.26,27.469,27.469,0,0,0,5.87,2.78h.45v.15h.6v.15h1.05v.15H31v.15h4.06v-.15h1.2v-.15h1.05v-.15h.9v-.15h.75c.55-.2,1.09-.33,1.65-.49.38-.1,1.41-.26,1.65-.56.17-.21-.21-.25-.53-.35C41.48,70.12,41.2,70.06,40.93,69.98Z" fill="#d2bbe6"/>
        <path id="Path_126" data-name="Path 126" d="M58.82,63.26a8.746,8.746,0,0,1-.45.75,10.123,10.123,0,0,0-1.2,1.58h.6c1.27-.64,2.62-1.12,3.91-1.73a22.313,22.313,0,0,0,3.76-2.18,30.432,30.432,0,0,0,3.31-2.93c.56-.56,1-1.2,1.5-1.8a8.746,8.746,0,0,0,.45-.75,7.829,7.829,0,0,0,.45-.75A25.336,25.336,0,0,0,74.01,45.3v-.98c0-.09-.01-.21,0-.3a3.923,3.923,0,0,1,.15-.45,6.508,6.508,0,0,0,0-1.65,4.722,4.722,0,0,1-.15-.45,3.379,3.379,0,0,1,0-.45v-.83a10.736,10.736,0,0,0-.15-1.58c-.09-.64-.07-1.19-.15-1.8-.07-.52-.26-1.07-.3-1.58v-.45h-.15v-.3h-.6v.15H71.61v.15h-.9v.15h-.9l-.6.3h-.75c-1.25.47-2.58.73-3.83,1.2a10.457,10.457,0,0,0-1.88.73c-.46.28-.19.27,0,.7a5.845,5.845,0,0,1,.15.6c.04.12.12.2.15.3.12.36.18.69.3,1.05a5.862,5.862,0,0,1,.3.75,4.148,4.148,0,0,0,.15.75c.05.16.1.29.15.45.02.06.15.44.15.45.09.58.06,1.07.15,1.65a4.722,4.722,0,0,1,.15.45,3.379,3.379,0,0,1,0,.45,3.98,3.98,0,0,0,.15.75,12.485,12.485,0,0,1,0,1.73v.83a2.411,2.411,0,0,1,0,.38c-.02.15-.13.27-.15.38-.05.32.04.66,0,.98a5.107,5.107,0,0,0-.15.83,5.973,5.973,0,0,1-.3,1.58c-.16.57-.26,1.17-.45,1.73s-.42,1.1-.6,1.65a28,28,0,0,1-1.35,3.31,15.976,15.976,0,0,1-1.05,1.8c-.33.49-.58,1.01-.9,1.5C59.33,62.57,59.07,62.89,58.82,63.26Z" fill="#d2bbe6"/>
        <path id="Path_127" data-name="Path 127" d="M24.99,44.46v.9c0,.09-.01.21,0,.3a3.925,3.925,0,0,0,.15.45c.1.63.06,1.19.15,1.8.07.5.22.98.3,1.5a20.911,20.911,0,0,0,1.05,3.46,14.4,14.4,0,0,0,.75,1.65,13.8,13.8,0,0,0,.9,1.65,22.934,22.934,0,0,0,6.17,6.09c2.09,1.43,4.5,2.18,6.77,3.31h.6c-.38-.69-.93-1.24-1.35-1.88s-.89-1.24-1.28-1.88c-.37-.62-.73-1.28-1.13-1.88a7.975,7.975,0,0,1-.9-1.8,8.09,8.09,0,0,0-.45-1.05,6.17,6.17,0,0,1-.3-.75c-.08-.25-.22-.5-.3-.75l-.3-.9a18.989,18.989,0,0,1-.9-3.31c-.08-.55-.23-1.16-.3-1.73a12.227,12.227,0,0,1-.15-1.58v-1.8c0-.59.15-1.02.15-1.58a5.754,5.754,0,0,1,.15-.98c.01-.1-.01-.2,0-.3a3.925,3.925,0,0,1,.15-.45,9.29,9.29,0,0,1,.3-1.65c.18-.54.27-1.12.45-1.65.18-.55.42-1.1.6-1.65.12-.36.39-.55.15-.8a3.127,3.127,0,0,0-.9-.35c-.5-.18-1-.38-1.5-.55-1.15-.38-2.33-.65-3.46-1.08H29.8l-.6-.3h-.9v-.15h-.9v-.15H26.35v-.15h-.6v.3H25.6v.45c-.08.62-.21,1.23-.3,1.88-.09.61-.21,1.35-.3,1.96a13.515,13.515,0,0,0,0,1.8c0,.72-.15,1.24-.15,1.96C24.84,43.42,24.99,43.85,24.99,44.46Z" fill="#d2bbe6"/>
        <path id="Path_128" data-name="Path 128" d="M57.4,57.32a8.158,8.158,0,0,0,.53-.9c.27-.7.59-1.35.9-2.03a8.511,8.511,0,0,0,.3-.98c.1-.34.19-.65.3-.98a11.854,11.854,0,0,0,.45-1.96,28.452,28.452,0,0,0,.3-3.99,22.728,22.728,0,0,0-.53-3.91,16.11,16.11,0,0,0-1.43-3.99c-.07-.15-.09-.37-.15-.53-.08-.2-.21-.34-.3-.53-.14-.29-.31-.6-.45-.9a22.334,22.334,0,0,0-1.13-2.03,39.461,39.461,0,0,0-2.86-3.91,22.27,22.27,0,0,0-1.88-2.03,10.308,10.308,0,0,1-1.8-1.88h-.3a12.416,12.416,0,0,1-2.11,2.18,27.057,27.057,0,0,0-1.96,2.26,39.213,39.213,0,0,0-3.08,4.44,19.905,19.905,0,0,0-1.88,3.99c-.22.65-.53,1.3-.75,1.96a12.091,12.091,0,0,0-.45,1.96,25.917,25.917,0,0,0-.3,3.99,22.463,22.463,0,0,0,.53,3.91,12.891,12.891,0,0,0,.53,2.03,20.255,20.255,0,0,0,.75,1.96,40.762,40.762,0,0,0,2.18,3.99,39.772,39.772,0,0,0,2.86,3.91c.52.67,1.17,1.4,1.73,2.03a12.279,12.279,0,0,1,1.8,1.88h.6c.49-.86,1.49-1.41,2.11-2.18.57-.72,1.25-1.55,1.8-2.26a22.936,22.936,0,0,0,1.73-2.18c.46-.76.95-1.52,1.43-2.26C57.08,58.05,57.2,57.65,57.4,57.32Z" fill="#d2bbe6"/>
      </g>
    </g>
    <circle id="Ellipse_1" data-name="Ellipse 1" cx="2.37" cy="2.37" r="2.37" transform="translate(47.47 68.75)" fill="#d2bbe6"/>
  </g>
</svg>
