<svg id="massage-icon" xmlns="http://www.w3.org/2000/svg" width="122.607" height="109.445" viewBox="0 0 122.607 109.445">
  <g id="Group_7" data-name="Group 7" transform="translate(0 0)">
    <path id="Path_33" data-name="Path 33" d="M80.7,83.945a14.21,14.21,0,0,1-2.558-2.672H14.862c-.753-.284-2.4-.739-2.786-1.492H11.65v6.837h71.4C83.1,85.849,81.24,84.5,80.7,83.945Z" transform="translate(-11.59 22.829)" fill="#d2bbe6"/>
    <path id="Path_34" data-name="Path 34" d="M133.8,85.547a4.909,4.909,0,0,0-1.907-2.672,10.5,10.5,0,0,0-3.115-1.606H101.542a12.97,12.97,0,0,0-2.384-2.246l-2.622-2.345-5.022-4.492C89.8,70.651,88.336,69.13,86.62,67.6a20.039,20.039,0,0,0-5.133-3.852h-1.43V63.53H16.967v.213h-1.43c-2.018.91-3.528,2.018-3.83,3.951a30.267,30.267,0,0,0,0,4.492v9.083c0,2.2,2.066,3.525,4.307,4.278H87.239a12.2,12.2,0,0,0,2.272,2.132L91.9,89.811a32.485,32.485,0,0,0,2.511,2.246,14.406,14.406,0,0,0,2.384,1.18h1.192v.213H128.1v-.213h1.192c1.859-.824,3.56-1.734,4.307-3.425C133.913,89.044,134.692,86.414,133.8,85.547Z" transform="translate(-11.608 15.981)" fill="#d2bbe6"/>
    <path id="Path_35" data-name="Path 35" d="M64.513,73.255c.227.483.412,1.009.64,1.492a10.155,10.155,0,0,0,2.558,3,16.467,16.467,0,0,0,3.212,2.246c1.052.526,2.175.768,3.212,1.279h1.706v.213H78.4v-.213h1.492c2.7-1.009,5.3-1.961,7.263-4.165,2.914-3.255,4.7-8.343,3.212-12.821A20.757,20.757,0,0,0,89.3,61.074a14.612,14.612,0,0,0-2.558-3.212,16.654,16.654,0,0,0-6.41-3.738H79.267V53.91H74.989v.213H73.71c-2.686,1.009-5.472,2.274-7.263,4.591a13.87,13.87,0,0,0-2.558,12.821A10.351,10.351,0,0,0,64.513,73.255Z" transform="translate(23.1 9.293)" fill="#d2bbe6"/>
    <path id="Path_36" data-name="Path 36" d="M42.719,69.7c.355-.682.654-1.365,1.066-2.033a22.264,22.264,0,0,1,3.426-3.639A20.421,20.421,0,0,0,50.522,60.3c.412-.682,1.094-3.042.327-3.852h.213a11.584,11.584,0,0,0,3,2.885c1.08.867,1.89,2.061,3,2.885,1.677,1.237,4.15,1.819,6.1,2.558,4.108,1.549,8.187,3.155,12.295,4.7H77.8a6.748,6.748,0,0,0,2.558-1.606,5.756,5.756,0,0,0,1.066-2.558,4.681,4.681,0,0,0-2.246-4.762c-3.2-1.777-6.894-2.487-10.149-4.122H68.6c-1.933-.967-4.534-1.308-6.2-2.672-2.089-1.72-4.179-3.752-6.1-5.671-2.018-2.018-4.079-3.866-6.1-5.884a8.964,8.964,0,0,0-3-2.132C46.187,39.643,45.05,39.5,44,39.1H42.932V38.89H41.866v-.213H40.587v-.213H38.455V38.25H36.948v.213H34.6v.213H33.537v.213h-.426V39.1h-.426c-1.549,1.052-2.061,2.9-2.786,4.378a9.8,9.8,0,0,0-.426,1.066c-.128.37-.3.7-.426,1.066-.242.725-.611,1.407-.853,2.132a16.449,16.449,0,0,1-.967,2.246c-.355.682-.526,1.45-.853,2.132-.327.711-.711,1.507-.967,2.246-.128.37-.313.711-.426,1.066a1.7,1.7,0,0,0-.213.967h-.213a5.562,5.562,0,0,1-.64,1.919c-.284.64-.583,1.279-.853,1.919s-.455,1.293-.753,1.919a16.9,16.9,0,0,0-.753,1.819c-.441,1.308-1.066,2.544-1.492,3.852a16.443,16.443,0,0,1-.853,1.919c-.256.5-.213,1.365-.64,1.819h23.3C41.824,71.041,42.463,70.188,42.719,69.7Z" transform="translate(-8.674 -0.496)" fill="#d2bbe6"/>
    <path id="Path_37" data-name="Path 37" d="M35.515,23.448a13.027,13.027,0,0,0-3.1,12.721,7.123,7.123,0,0,0,.54,1.606c.284.469.5,1.009.753,1.492a9.754,9.754,0,0,0,2.459,3.042,15.84,15.84,0,0,0,3.1,2.189c1.038.5,2.132.768,3.212,1.18h1.279v.213h3v-.213h1.279c2.615-.981,5.4-1.99,7.164-4.278a14.222,14.222,0,0,0,3.1-6.311,20.016,20.016,0,0,0,.213-3.1,18.689,18.689,0,0,0-.426-3.1,7.95,7.95,0,0,0-.426-.853,5.344,5.344,0,0,0-.213-.853c-.256-.526-.554-.995-.853-1.492a11.759,11.759,0,0,0-2.459-3.1,21.012,21.012,0,0,0-6.311-3.212H45.692V19.17H44.84v.213H42.708a37.586,37.586,0,0,0-3.639,1.393A12.832,12.832,0,0,0,35.515,23.448Z" transform="translate(1.412 -14.266)" fill="#d2bbe6"/>
    <path id="Path_38" data-name="Path 38" d="M31.3,28.527h.426a4.653,4.653,0,0,1,.853-2.033c.4-.668.839-1.251,1.279-1.919a13.2,13.2,0,0,1,3.525-3.525c.654-.455,1.35-.881,2.033-1.279.483-.284,1.748-.455,1.706-1.066-.043-.583-1.365-1.393-1.819-1.706a15.271,15.271,0,0,0-2.033-1.066h-.853V15.72H34.924v.213H33.645c-2.729,1.023-4.747,2.928-5.131,5.671A7.072,7.072,0,0,0,31.3,28.527Z" transform="translate(-1.325 -15.72)" fill="#d2bbe6"/>
  </g>
</svg>
