<svg id="Group_8" data-name="Group 8" xmlns="http://www.w3.org/2000/svg" width="179.046" height="178.995" viewBox="0 0 179.046 178.995">
  <path id="Path_39" data-name="Path 39" d="M54.992,90.028a31.059,31.059,0,0,0-4.184-4.021H49.065v-.349H47.321c-2.533-.953-5.253-1.627-7.856-2.394-2.417-.721-5.927-1.534-7.856-3.184h-.4V93.026a8.668,8.668,0,0,0,.349,3.672,7.266,7.266,0,0,0,2.789,2.975H67.915a83.816,83.816,0,0,1-8.553-5.95C57.92,92.469,56.363,91.4,54.992,90.028Z" transform="translate(14.603 79.321)" fill="#d2bbe6"/>
  <path id="Path_40" data-name="Path 40" d="M75.4,108.583c-.3-.6-.442-1.3-.7-1.929a8.858,8.858,0,0,0-.535-1.046c-.116-.256-.046-.628-.186-.883a47.378,47.378,0,0,1-3.835-13.109c-.186-1.116-.163-2.138-.349-3.324a7,7,0,0,1-.349-.883,5.6,5.6,0,0,1,0-.883,11.955,11.955,0,0,0,0-1.581,22.813,22.813,0,0,1-.349-6.462,9.213,9.213,0,0,0,.349-1.929,11.956,11.956,0,0,1,0-1.581c.186-1.348.744-1.952-.7-2.789A63.319,63.319,0,0,0,62.1,68.86c-4.3-1.906-8.879-2.905-13.272-4.556H47.089v-.349H45.346v-.349H43.254v-.349H41.162V62.91H37.327v.349h-.349v.349H36.63v.7a25.914,25.914,0,0,0,.349,3.672c.093.674.256,1.162.349,1.743.046.349-.046.7,0,1.046s.3.442.349.7a47.63,47.63,0,0,0,1.743,7.345C40.14,80.97,40.6,83.2,41.511,85.27c.976,2.208,2.092,4.3,3.138,6.462a47.728,47.728,0,0,0,9.437,12.923,49.535,49.535,0,0,0,12.923,9.437c2.092,1.046,4.16,2.022,6.3,2.905,2.185.906,4.532,1.441,6.648,2.51H81.35c-1.511-2.487-2.952-4.951-4.184-7.508C76.585,110.907,75.98,109.768,75.4,108.583Z" transform="translate(21.808 56.583)" fill="#d2bbe6"/>
  <path id="Path_41" data-name="Path 41" d="M113.419,63.627v-.349h-.349V62.93h-3.835v.349h-2.092v.349h-2.092v.349h-1.743c-2.487.93-5.137,1.534-7.693,2.278-2.626.767-5.16,1.766-7.693,2.789-1.185.488-2.348,1.162-3.486,1.743-.883.442-2.557.976-3.138,1.743-.79,1.046-.163,2.394,0,3.486a23.561,23.561,0,0,1,0,3.138v6.81a9.5,9.5,0,0,1-.349,1.929c-.07.511.07,1.069,0,1.581-.07.488-.256.976-.349,1.581a8.581,8.581,0,0,1-.349,1.743c-.372,1.116-.325,2.371-.7,3.486-.349,1.046-.7,2.115-1.046,3.138a50.453,50.453,0,0,1-2.441,6.648c-.093.209-.279.814-.349,1.046-.116.325-.232.558-.349.883-.209.511-.535,1.069-.7,1.581a16.725,16.725,0,0,1-1.581,3.324c-.721,1.185-1.371,2.3-2.092,3.486a9.083,9.083,0,0,0-1.581,3.138h1.046a149.312,149.312,0,0,0,14.69-6.3,39.8,39.8,0,0,0,12.923-10.32c.953-1.209,2.069-2.162,2.975-3.324.7-.906,1.278-2.069,1.929-2.975a46.428,46.428,0,0,0,3.835-6.648,52.148,52.148,0,0,0,2.789-6.648c.372-1.116.953-2.162,1.232-3.324.256-1.069.535-2.115.883-3.138a37.139,37.139,0,0,0,1.395-6.462,40.744,40.744,0,0,0,.7-6.462v-.349h-.4Z" transform="translate(65.232 56.609)" fill="#d2bbe6"/>
  <path id="Path_42" data-name="Path 42" d="M68.469,122.286c.023-.883-.744-1.674-1.046-2.441-.349-.86-.767-1.743-1.046-2.626-.581-1.72-1.511-3.347-2.092-5.067a54.725,54.725,0,0,1-2.441-8.9c-.046-.256-.256-.883-.349-1.232-.093-.372-.256-.651-.349-1.046-.186-.813-.232-1.441-.349-2.278-.209-1.418-.488-2.859-.7-4.37a31.254,31.254,0,0,1-.349-4.556,10.249,10.249,0,0,1,1.395-4.556c1.581-3.161,4.6-5,8.042-6.3h5.95v.349h2.092v.349h2.092v.349h2.092v.349h1.743c3.579,1.348,7.391,2.092,11.017,3.37,1.836.651,3.626,1.418,5.416,2.208,1.836.814,4.068,1.464,5.6,2.789h.349a7.7,7.7,0,0,1,.535-2.092c.256-.7.651-1.371.883-2.092a27.018,27.018,0,0,1,1.743-4.184v-.7h.349v-.7h.349c-.07-.976,1-2.464,1.395-3.324.488-1.092,1.255-2.069,1.743-3.138a17.022,17.022,0,0,1,2.092-3.324c.767-.976,1.325-2.162,2.092-3.138,1.673-2.092,3-4.788,5.067-6.648a19.137,19.137,0,0,1,6.462-3.486h3.835v.349h1.743a9.087,9.087,0,0,0,2.278,1.139A9.49,9.49,0,0,1,138.2,59a50.338,50.338,0,0,1,3.672,4.184c2.138,2.673,3.7,5.648,5.6,8.391a59.113,59.113,0,0,1,4.556,8.553c.3.651.372,1.441.7,2.092a19.5,19.5,0,0,1,1.046,2.092c.232.721.465,1.395.7,2.092a5.094,5.094,0,0,0,.7,1.929h1.046c2.58-2.255,6.648-3.324,9.785-4.556,2.162-.837,2.3-2.138,3.324-3.835a48.271,48.271,0,0,0,4.021-9.623c.511-1.511.906-3.045,1.395-4.556a30.074,30.074,0,0,0,1.046-4.9c.023-.093.279-.813.349-1.046a11.113,11.113,0,0,0,.349-1.395,6.551,6.551,0,0,0,.349-2.278v-.349c-.116-.674.256-1,.349-1.581s-.07-1.185,0-1.743a21.131,21.131,0,0,0,.349-3.324c0-3.022-1.069-4.556-3.835-5.95H15.335c-2.7,1.348-3.835,3.022-3.835,5.95,0,2.255.7,4.37.7,6.648-.023.558.256.86.349,1.395.046.232-.023.465,0,.7.046.349.3.628.349.883.163,1.023.209,1.79.349,2.789.139.953.465,2,.7,2.975.232.906.581,1.906.883,2.789.651,1.952,1.162,4.021,1.929,5.95a16.66,16.66,0,0,0,1.232,2.789,17.286,17.286,0,0,1,.883,1.581c.209.465-.093.767.349,1.232,1.162,2.022,2.138,4.068,3.138,6.113,1.023,2.092,2.65,3.928,3.835,5.95a58.807,58.807,0,0,0,8.9,10.669,94.308,94.308,0,0,0,10.831,9.437A76.184,76.184,0,0,0,56.592,117.5c3.533,1.766,7.322,2.952,10.831,4.718h1.046Z" transform="translate(-11.472 30.467)" fill="#d2bbe6"/>
  <path id="Path_43" data-name="Path 43" d="M89.916,101.386c0-.976.349-1.488.349-2.441V93.367a31.409,31.409,0,0,0,0-4.184c-.186-1.232-.535-2.58-.7-3.835a45.891,45.891,0,0,0-2.092-8.042,41.286,41.286,0,0,0-3.324-8.2c-.418-.721-.86-1.511-1.232-2.278-.3-.6-.744-1.116-1.046-1.743-.674-1.371-1.464-2.673-2.278-4.021a42.212,42.212,0,0,0-2.789-4.184c-1.023-1.3-1.883-2.905-3.324-3.835H71.74c-.906,1.674-2.464,2.836-3.486,4.37a39.829,39.829,0,0,0-2.789,4.556c-.442.906-1.3,1.534-1.743,2.441-.349.721-.628,1.395-1.046,2.092a47.373,47.373,0,0,0-2.092,4.556,54.781,54.781,0,0,0-4.9,16.084,15.037,15.037,0,0,0-.349,2.441,10.912,10.912,0,0,1,0,1.743,10.977,10.977,0,0,0-.349,1.046,7.854,7.854,0,0,0,0,1.046v1.743c0,1.557.349,2.673.349,4.184a10.9,10.9,0,0,0,.349,2.092c.093.558-.093,1.185,0,1.743a.537.537,0,0,1,.349.7v.7a5.526,5.526,0,0,0,.349,1.046c.186.581.163,1.162.349,1.743.418,1.255.628,2.58,1.046,3.835.465,1.418,1.278,2.766,1.743,4.184a21.914,21.914,0,0,0,1.743,4.021c1.511,2.626,2.6,5.6,4.556,8.042,1.023,1.278,1.743,2.882,2.789,4.184a22.79,22.79,0,0,1,2.789,3.835h2.441c.906-1.673,2.464-2.836,3.486-4.37.976-1.464,1.836-3.115,2.789-4.556a78.231,78.231,0,0,0,4.9-9.088A61.32,61.32,0,0,0,88.15,109.4c.465-1.371.6-2.836,1.046-4.184A11.812,11.812,0,0,0,89.916,101.386Z" transform="translate(46.084 43.512)" fill="#d2bbe6"/>
  <path id="Path_44" data-name="Path 44" d="M12.562,43.668a14.446,14.446,0,0,0,1.395,2.975,23.573,23.573,0,0,1,2.092,2.626H16.4A25.724,25.724,0,0,0,22,52.059h4.9c2.069-.767,4.6-1.348,6.3-2.789h.349c.744.767.744,2.371,1.046,3.324.349,1.069,1.046,2.069,1.395,3.138.721,2.162,1.278,4.346,2.092,6.462.86,2.208,1.72,4.37,2.441,6.648.349,1.069.86,2.069,1.232,3.138.3.883,1.069,2.138.883,3.138H77.248c.093-1.255-1.185-2.3-1.743-3.324-.535-.976-.93-2.115-1.395-3.138-1-2.138-2.115-4.439-3.324-6.462-1.255-2.115-2.162-4.463-3.324-6.648-.558-1.046-1.209-2.092-1.743-3.138-.442-.883-1.418-2.115-1.395-3.138h-.349a9.848,9.848,0,0,0-1.046-2.626c-.465-.953-.953-1.859-1.395-2.789-.488-1-3.161-4.858-2.441-5.6.465-.488,2.138-.883,2.789-1.162a13.545,13.545,0,0,0,2.441-1.278,11.806,11.806,0,0,0,4.556-4.9,11.5,11.5,0,0,0,1.395-5.6,14.786,14.786,0,0,0-1.046-5.253c-1.441-4.3-4.579-6.88-9.088-8.553H54.19c-4.184,2.092-8.646,3.7-12.923,5.6-7.647,3.37-15.526,6.369-23.08,9.971a14.654,14.654,0,0,0-5.253,5.067A9.995,9.995,0,0,0,11.539,37.9a25.409,25.409,0,0,0,0,2.975A11.536,11.536,0,0,0,12.562,43.668Z" transform="translate(-11.488 -11.5)" fill="#d2bbe6"/>
</svg>
