<svg id="chakras-icon" xmlns="http://www.w3.org/2000/svg" width="181.151" height="188.079" viewBox="0 0 181.151 188.079">
  <g id="Group_4" data-name="Group 4">
    <path id="Path_21" data-name="Path 21" d="M116.9,78.266h-1.831V77.9H39.414v.366H37.582a9.034,9.034,0,0,0-5.153,5.519c-.635,1.88-.366,4.3-.366,6.422v13.04h90.352V90.4c0-2.173.269-4.689-.366-6.618A9.508,9.508,0,0,0,116.9,78.266Z" transform="translate(15.237 84.832)" fill="#d2bbe6"/>
    <path id="Path_22" data-name="Path 22" d="M193.633,82.093a13.946,13.946,0,0,0-.366-2.759c-.317-.952-1.026-1.734-1.1-2.759v-.366H191.8c-.244-1.88-2.051-3.248-2.2-5.153h-.366v-.366c.073-1.1-1.05-2.2-1.465-3.126-.22-.488-.513-.977-.733-1.465-.2-.44-.171-1.026-.366-1.465-.928-2.051-2.076-3.98-2.93-6.056-1.514-3.663-3.883-7.082-5.153-10.842-1.27-3.809-3.858-7.2-5.153-11.013-1.245-3.761-3.687-7.155-5.153-10.842a18.388,18.388,0,0,0-2.93-5.323c-1.441-1.734-3.468-2.344-5.519-3.126h-3.663a13.424,13.424,0,0,0-6.251,4.225c-1.294,1.636-1.465,3.834-1.465,6.056,0,4.176,2.808,7.155,4.029,10.842.61,1.856,1.831,3.516,2.564,5.323.757,1.856,1.685,3.516,2.564,5.323.464.928.635,2,1.1,2.93.44.9,1.05,1.661,1.465,2.564a49.3,49.3,0,0,0,2.393,5.323c.513.855.855,1.856,1.294,2.759.415.83.708,1.734,1.1,2.564a48.3,48.3,0,0,0,2.564,5.323H165.7V70.3h-2.564v-.366H160.2v-.366h-2.564V69.2h-2.93v-.366h-2.564v-.366h-2.93V68.1H146.65v-.366h-2.93v-.366h-2.93V67h-2.93v-.366h-2.93v-.366h-3.663V65.9H127.6v-.366h-4.029V65.17h-5.885V64.8H93.806v.366H87.188v.366h-4.4V65.9H79.13v.366h-4.1v.366h-3.3V67H68.8v.366H65.5v.366h-2.93V68.1h-2.93v.366h-2.93v.366h-2.93V69.2H51.218v.366h-2.93v.366h-2.93V70.3h-2.93v.366H39.5v.366h-.366c-.073-.879.855-2.222,1.294-2.93.586-.977.781-2.124,1.294-3.126C42.7,63,43.7,61.092,44.65,59.09c3.443-7.082,6.4-14.432,9.914-21.489,1.709-3.419,3.663-6.691,3.663-10.842,0-4.42-3.077-7.057-6.984-8.986H45.724c-2.418,1.221-4.371,2.271-5.519,4.591-.269.562-.855.9-1.1,1.465-.2.44-.171,1.026-.366,1.465-.464,1-1.026,1.954-1.465,2.93C35.614,31.838,34,35.549,32.122,39.066c-1.831,3.443-2.955,7.3-4.957,10.647a57.985,57.985,0,0,0-2.393,5.323c-.855,1.856-1.734,3.663-2.564,5.519-.83,1.783-1.661,3.59-2.564,5.323-.464.879-.659,1.856-1.1,2.759-.366.781-1.123,1.465-1.1,2.393H17.08a8.084,8.084,0,0,1-.928,2.564c-.44.855-.83,1.661-1.294,2.564v.366h-.366a14.136,14.136,0,0,1-1.1,2.759,12.246,12.246,0,0,0-.366,2.564,12.835,12.835,0,0,0-.366,1.465c0,.659.293.586.366,1.1.147.9.073,2.027.733,2.759v.366h.366v.733h.366V89h.366v.366h.366v.366h.366V90.1h.366v.366h.366v.366h.733V91.2h.366v.366h.733v.366h1.1V92.3h1.1v.366h4.786V92.3h2.93v-.366H31v-.366h2.564V91.2h2.93v-.366h2.93v-.366h2.93V90.1h2.564v-.366h2.93V89.37h2.93V89h2.93v-.366h2.564v-.366H59.2V87.9h2.93v-.366h2.93v-.366H65.8c0,2.491.366,4.591.366,6.984v.366c.684.708.61,2.564.733,3.492a18.439,18.439,0,0,0,.733,3.3c.757,2.271,1.294,4.689,2.564,6.789a5.878,5.878,0,0,1,.733,1.831c.269.635.44,1.392.733,2.027a35.777,35.777,0,0,1,1.465,3.663,20.321,20.321,0,0,1,.733,3.858c.073.659-.1,1.368,0,2.027.1.635.44,1.026.366,1.661,0,4.518.733,8.693.733,13.211v.366a26.882,26.882,0,0,0,.366,3.858c.2,1.465-.366,2.491-.366,3.858,0,2.759-.733,5.055-.733,7.717h-.366a12.368,12.368,0,0,1-.733,4.225c-.244.708-.488,1.49-.733,2.2a4.063,4.063,0,0,0-.366,2.027h66.1a4.816,4.816,0,0,0-.366-2.027c-.244-.708-.488-1.49-.733-2.2a12.579,12.579,0,0,1-.733-4.225h-.366a24.9,24.9,0,0,0-.366-3.858,11.457,11.457,0,0,1-.366-2.2V144.29a11.166,11.166,0,0,0-.366-2.027,2.955,2.955,0,0,1,0-.928,9.576,9.576,0,0,1,.366-1.1,25.434,25.434,0,0,0,0-3.858c0-4.518.733-8.669.733-13.211V122.8h.366a29.366,29.366,0,0,1,3.663-14.334V108.1c1.319-2.027,1.831-4.566,2.564-6.789a23.963,23.963,0,0,0,.733-3.492c.147-.855.073-2.613.733-3.3v-.366c0-2.32.366-4.249.366-6.618h1.465V87.9h2.93v.366h2.93v.366h2.93V89h2.564v.366h2.93v.366h2.93V90.1h2.93v.366h2.564v.366h2.93V91.2h2.93v.366h2.93v.366h2.564V92.3h3.3v.366h1.1V92.3h2.564v-.366h.733v-.366h1.1V91.2h.366v-.366h.733v-.366h.366V90.1h.366v-.366h.366V89.37h.366V89h.366v-.366h.366V87.9h.366v-.366c.269-.488.537-.855.733-1.294s.22-1.026.366-1.465C194.024,83.656,193.78,83.241,193.633,82.093Zm-79.315,57.484a8.762,8.762,0,0,1,1.1,4.591,15.66,15.66,0,0,1,0,2.393c.024-.1-.342,1.05-.366,1.1a9.646,9.646,0,0,0-.366,1.1c-1.074,1.709-3.052,2.613-4.786,3.492H104.38c-3.37-1.27-7.35-3.248-7.35-7.155a8.479,8.479,0,0,1,1.1-4.786c1.074-1.758,3.321-2.222,4.786-3.492h1.831v-.366h4.786C111.266,137.086,113.293,137.867,114.319,139.577ZM108.8,108.539a14.871,14.871,0,0,1,4.4,2.759,7.141,7.141,0,0,1,1.1,2.2c.122.342.244.733.366,1.1.024.1.293.879.342,1.05a7.069,7.069,0,0,0-.342,1.172c-.122.366-.244.757-.366,1.1a5.824,5.824,0,0,1-1.1,2.2,14.39,14.39,0,0,1-4.4,2.759h-1.831v.366h-3.3c-1.88-.708-3.443-1.123-4.786-2.759a5.863,5.863,0,0,1-1.1-2.564,14.232,14.232,0,0,1-.366-2.2,17.257,17.257,0,0,1,.366-2.393,6.873,6.873,0,0,1,1.1-2.393c1.27-1.612,2.93-2.051,4.786-2.759h3.3v.366H108.8Zm5.885-16.9a15.346,15.346,0,0,1-4.029,2.564h-2.564v.366h-1.465v-.366h-2.564a22.342,22.342,0,0,1-4.957-2.3,7.518,7.518,0,0,1-2.027-2.3c-.44-.708-.537-1.783-1.1-2.393.171-.733-.366-1.026-.366-1.661a4.7,4.7,0,0,1,.366-1.661,10.429,10.429,0,0,1,1.465-3.126c1.587-2.271,3.736-2.979,6.251-4.225h2.564v-.366h2.2v.366h2.2a20.649,20.649,0,0,1,3.3,1.831,6.45,6.45,0,0,1,2.027,2.93,12.22,12.22,0,0,1,.733,3.3,17.376,17.376,0,0,1-.2,2.93A7.429,7.429,0,0,1,114.685,91.641Z" transform="translate(-12.66 -2.363)" fill="#d2bbe6"/>
    <path id="Path_23" data-name="Path 23" d="M43,51.87a36.974,36.974,0,0,0,5.323,6.422C51.891,61.857,56.384,63.176,61,64.91h2.2v.366h6.618V64.91h2.2a78.2,78.2,0,0,0,7.35-2.759,27.539,27.539,0,0,0,6.984-5.519c3.663-3.663,5.3-8.034,6.618-12.674a20.326,20.326,0,0,0,.366-3.3,10.868,10.868,0,0,0,.366-3.126,37.591,37.591,0,0,0-1.1-6.251,46.239,46.239,0,0,0-2.2-6.251c-.1-.22-.635-.928-.733-1.1-.171-.269-.244-.513-.366-.733a15.252,15.252,0,0,0-1.1-1.465,24.492,24.492,0,0,0-2.759-3.126A40.425,40.425,0,0,0,72.77,11.626H70.938V11.26H62.123v.366H60.291c-5.348,2-10.574,4.1-14.334,8.62A26.627,26.627,0,0,0,39.9,32.92c-.61,4.225-.781,8.669.562,12.674A25.629,25.629,0,0,0,43,51.87Z" transform="translate(25.958 -11.26)" fill="#d2bbe6"/>
  </g>
</svg>
