<svg xmlns="http://www.w3.org/2000/svg" width="181.069" height="181.163" viewBox="0 0 181.069 181.163">
  <g id="Group_10" data-name="Group 10" transform="translate(0 0)">
    <g id="Component_8_1" data-name="Component 8 – 1" transform="translate(0 0)">
      <g id="Group_25" data-name="Group 25" transform="translate(0 0)">
        <path id="Path_103" data-name="Path 103" d="M167.445,116.473c-3.521-2.387-5.892-6.063-7.77-9.525h-.352v5.562a15.283,15.283,0,0,1-1.408,5.562,11.656,11.656,0,0,1-3.873,5.2,26.872,26.872,0,0,1-5.657,2.7h-1.76v.358h-2.817v.358h-3.521v.358H137.47v.358h-1.76v.358h-2.465c-1.643-.835-2.817-1.313-3.873-2.7a44.616,44.616,0,0,1-2.817-3.939c-1.714-2.7-4.343-5.013-5.657-7.9-1.1-2.435-2.136-5.037-1.761-8.069a10.735,10.735,0,0,1,1.244-3.939,22.954,22.954,0,0,1,1.244-1.981c.329-.477,1.127-1.289,1.056-1.981h.352V96.9h-2.113v.358h-4.953c-4.108-1.576-7.676-3.819-9.53-7.711a46.366,46.366,0,0,1-2.465-5.4,22.419,22.419,0,0,0-2.465-5.2,6.818,6.818,0,0,1-1.056-5.2c.516-1.886,2.441-3.724,3.521-5.4.587-.907,1.2-1.647,1.76-2.507.587-.883,1.127-2.1,1.761-2.865.751-.907,1.338-1.623,2.113-2.507.423-.477.634-.621,1.056-1.074a6.819,6.819,0,0,0,1.056-1.265h.352v-.358h.352a18.691,18.691,0,0,1,3.873-2.148h2.113v-.358h1.76v.358h3.169v-.358c-.8-1.408-.962-2.029-2.652-2.626-1.2-.43-2.324-.931-3.521-1.313-2.394-.764-4.882-1.265-7.23-2.148h-1.408V48.82h-2.113v-.358h-1.76V48.1H102.19v-.358H99.021v-.358H92.66V47.03h-5.3v.358H81.7v.358H78.881V48.1H76.768v.358H74.656v.358H72.848v.358h-1.76c-2.652,1-5.422,1.671-8.122,2.578-1.385.477-2.723,1.05-4.061,1.623-1.268.525-3.075.955-4.061,1.91h-.7v.358h-.7c-.892.764-2.676,1.05-3.169,2.148h-.7v.358h-.7v.358h-.7v.358H47.8l-.7.716h-.7c-.54,1.1-2.723,2.148-3.709,2.865-1.314.979-2.606,1.934-3.873,2.96a87.594,87.594,0,0,0-7.582,7.281,47.626,47.626,0,0,0-5.657,7.185c-1.6,2.435-3.31,4.536-4.765,6.994a109.718,109.718,0,0,0-6.526,14.013c-.258.621-.141,1.337-.352,1.981-.188.6-.516,1.194-.7,1.79a20.08,20.08,0,0,0-.7,3.223c-.023.1-.282.836-.352,1.074a6.958,6.958,0,0,0-.188.907c-.07.454-.094,1.074-.188,1.623a24.322,24.322,0,0,0-.352,3.581c0,1.241-.352,2.244-.352,3.581,0,1.146.352,2.005.352,3.223a23.125,23.125,0,0,0,.352,3.581c.07.477.61,1.313.7,1.79.117.621-.164,1.1.352,1.623.587.6.4,1.671.7,2.339.352.74.7,1.432,1.056,2.148a22.43,22.43,0,0,0,1.408,2.148c.423.645.962,1.576,1.408,2.148a26.292,26.292,0,0,0,8.826,6.994H27.31V145H153.69v-.358h1.76a31.8,31.8,0,0,0,4.6-2.507,21.3,21.3,0,0,0,3.873-4.3,14.25,14.25,0,0,0,2.113-4.488c.258-.788.469-1.5.7-2.339a6.416,6.416,0,0,1,.7-2.148v-1.074h.352V126a40.79,40.79,0,0,0,.7-4.846v-2.507C168.5,117.285,168.525,117.213,167.445,116.473ZM25.9,128.862c-1.315-2.912-1.408-5.705-1.408-9.143v-2.148a11.374,11.374,0,0,1,.352-2.148,30.783,30.783,0,0,1,.7-4.679c.423-1.289.634-2.674,1.056-3.939.423-1.337.986-2.65,1.408-3.939a34.273,34.273,0,0,1,1.76-4.3c.094-.191-.094-.525,0-.716.211-.406.516-.668.7-1.074.305-.621.751-1.146,1.056-1.79a71.3,71.3,0,0,1,4.6-8.26A50.262,50.262,0,0,1,39.3,82.79c1.009-1.241,2.019-2.769,3.169-3.939A76.848,76.848,0,0,1,58.365,66.294a62.738,62.738,0,0,1,7.77-3.7c2.629-1.122,5.587-1.647,8.122-2.936h1.76l1.408-.716h1.76v-.358h2.465v-.358h3.873v-.358h5.3v.358h2.817c0,1.385-.352,1.5-1.6,2.053-1.009.454-2.019.836-3,1.337-1.878.955-3.756,1.91-5.657,2.865a118.322,118.322,0,0,0-20.656,13.2,121.794,121.794,0,0,0-10.422,9.429,55.2,55.2,0,0,0-4.765,5.2c-1.244,1.647-3,3.175-4.061,5.037a37.24,37.24,0,0,1-2.817,3.772c-.892,1.241-1.6,2.721-2.465,3.939-.892,1.265-1.549,2.483-2.3,3.772a41.325,41.325,0,0,0-2.3,3.772c-.587,1.313-1.174,2.65-1.76,3.939-.563,1.241-1.1,2.578-1.76,3.772a19.1,19.1,0,0,0-1.408,3.772c-.376,1.122-1.526,2.53-1.408,3.772a1.174,1.174,0,0,0-.352,1.074H25.9Z" transform="translate(-11.09 36.163)" fill="#d2bbe6"/>
        <path id="Path_104" data-name="Path 104" d="M91.054,85.938c0-1.767-.358-3.079-.358-4.846v-.716a46.273,46.273,0,0,0-.716-6.636,20.652,20.652,0,0,0-.716-3.414c-.334-1-.74-2.7-1.79-3.223H84.967c-1.194.477-1.671,2.435-2.148,3.414-.549,1.122-1.241,2.125-1.79,3.223-.549,1.146-1.217,2.268-1.79,3.414-.454.907-1.456,2.172-1.432,3.223h-.358c-.072-1.289,1.05-2.936,1.432-4.13.477-1.456.955-2.865,1.432-4.3a28.351,28.351,0,0,0,1.432-4.3,3.851,3.851,0,0,0,0-2.148,3.024,3.024,0,0,0-1.79-1.623H78.88a47.325,47.325,0,0,0-10.6,6.827c-1.743,1.552-3.39,3.366-5.2,4.846A13.582,13.582,0,0,0,59.5,80.4v.358h-.358v.358a23.485,23.485,0,0,0,0,4.3c.31,1.528,1.528,2.96,2.339,4.3.955,1.6,2.292,2.96,3.414,4.488.859,1.194,2.339,2.65,2.507,4.13h.358v.358h.358v.358h.358V99.4h.358v.358h3.223V99.4H74.2v-.358h3.581v-.358h3.581v-.358h1.79c1.91-.716,3.557-1.217,5.037-2.7A8.678,8.678,0,0,0,90.7,90.783c.1-.764-.119-1.576,0-2.339A15.444,15.444,0,0,0,91.054,85.938Zm-14.013-5.2H77.4v.358h-.358Z" transform="translate(53.383 59.537)" fill="#d2bbe6"/>
        <path id="Path_105" data-name="Path 105" d="M66.272,85.468V85.11h1.79a126.311,126.311,0,0,0,12.389-4.941c2.148-1.074,4.631-2.125,6.278-3.867a3.58,3.58,0,0,0,.716-3.056c-.263-1.146-1.432-1.385-2.507-1.79H82.791V71.1H80.285V70.74H78.136v-.358H75.63v-.358H73.481v-.358H71.333v-.358h15.8c.668-1.146,1.289-1.576,1.074-3.056-.167-1.17-1.408-2.22-2.339-3.056a63.711,63.711,0,0,0-6.111-4.583A54.643,54.643,0,0,0,67.37,52.43H64.506a12.057,12.057,0,0,0-4.846,2.865,23.883,23.883,0,0,0-3.581,4.679,37.989,37.989,0,0,1-3.414,4.846,12.943,12.943,0,0,0-1.432,2.148c-.549,1.17.072,1.241,0,2.339h.358v.716h.358v.716h.358V71.1h.358v.358C55.411,76.278,56.1,82.15,62,85.087h1.79v.358h2.483Z" transform="translate(42.54 44.577)" fill="#d2bbe6"/>
        <path id="Path_106" data-name="Path 106" d="M106.759,68.5a7.968,7.968,0,0,0-2.865-3.056c-1.1-.74-2.626-1.1-3.581-1.981h-1.79l-1.432-.716H95.3v-.358H93.152v-.358H90.646v-.358H86.707V61.31H81.264v.358h-1.79v.358h-.716v.358H78.4v.358h-.358v.716h-.358a4.325,4.325,0,0,0,.358,1.623,5.851,5.851,0,0,0,1.432,1.79c1.05,1,2.268,1.886,3.414,2.793,1.194.931,2.244,2.005,3.414,2.96.931.764,2.674,1.576,3.223,2.7h-.358c-3.891-2.626-7.973-4.87-11.84-7.543H74.819a6.719,6.719,0,0,0-1.074,1.981,2.564,2.564,0,0,0,0,1.79c.215.645.358,1.337.549,1.981.143.525.072,1.337.549,1.79.6.645.716,1.934,1.074,2.7.406.836.692,1.671,1.074,2.507a42.044,42.044,0,0,0,2.865,5.037c1.1,1.623,1.957,3.461,3.223,5.037a11.815,11.815,0,0,0,5.4,3.414h2.865c4.631-1.743,9.119-3.748,13.631-5.681,1.552-.668,1.79-1.337,1.79-2.936v-1.79a7.159,7.159,0,0,1,0-.716c.048-.358.31-.645.358-.907a11.207,11.207,0,0,0,0-1.79,9.629,9.629,0,0,1,.358-1.623,20.749,20.749,0,0,0,0-3.223h.358C107.834,72.768,107.81,70.6,106.759,68.5Z" transform="translate(72.925 56.523)" fill="#d2bbe6"/>
        <path id="Path_107" data-name="Path 107" d="M80.82,67.3a6.67,6.67,0,0,0,.907-3.581,7.47,7.47,0,0,0-1.074-3.772c-.836-1.361-2.435-1.743-3.581-2.7H73.133a8.077,8.077,0,0,0-3.581,2.7,4.892,4.892,0,0,0-1.074,1.981c-.1.668-.263,1.241-.358,1.79a6.084,6.084,0,0,0,1.074,3.772,8.32,8.32,0,0,0,3.581,3.056h4.679C78.7,69.448,79.96,68.732,80.82,67.3Z" transform="translate(65.836 51.285)" fill="#d2bbe6"/>
        <path id="Path_108" data-name="Path 108" d="M74.97,72.167h2.507c3.7-2.435,7.448-4.727,11.124-7.185h.358c-.645,1.146-2.22,2.22-3.223,3.056-1.1.907-2.339,1.743-3.414,2.7a37.583,37.583,0,0,0-3.414,3.056c-.477.525-1.074,1.074-1.074,1.79,0,.692.31.955.358,1.623h.358v.358h.358v.358h.716v.358h2.148v.358h4.679v-.358h3.939V77.92H92.54v-.358h2.148V77.2h2.148c2.888-1.074,6.35-1.552,8.618-3.772s2.507-5.252,2.507-8.427H107.6V64.29a40.72,40.72,0,0,0-.716-6.278c-.286-2.005.859-4.774-1.074-6.111-1.766-1.217-4.345-1.623-6.278-2.6-2.077-1.026-4.2-1.91-6.278-2.96h-1.79V45.98H88.243v.358H86.811a22.011,22.011,0,0,0-4.679,4.13,28.4,28.4,0,0,0-2.507,4.679c-.454.835-1,1.552-1.432,2.339-.43.74-.716,1.576-1.074,2.339a40.468,40.468,0,0,1-2.148,4.488v.716h-.358a3.451,3.451,0,0,1-.358,1.79,8.5,8.5,0,0,0-.358,1.79c-.1.74-.358,1.241,0,1.981C74.183,71.117,74.636,71.571,74.97,72.167Zm14.729-7.9h.358v.358H89.7Z" transform="translate(73.108 35.906)" fill="#d2bbe6"/>
        <path id="Path_109" data-name="Path 109" d="M19.972,96.011c1.432-1.862,3.294-3.819,4.846-5.562a43.138,43.138,0,0,1,5.037-4.3c1.743-1.432,3.366-2.912,5.2-4.225a82.281,82.281,0,0,1,10.05-6.111A91.965,91.965,0,0,1,55.35,71.185c3.318-1.194,6.756-1.934,10.05-3.175h1.79l1.432-.716h2.148v-.358H72.92v-.358h2.865v-.358h3.581v-.358h11.84V38.6c0-3.867-2.268-6.159-5.753-7.9H83.3V30.34H23.028V30.7H20.521c-.764.668-1.743.979-2.507,1.623a9.843,9.843,0,0,0-1.79,2.148,7.321,7.321,0,0,0-1.074,4.488v62.83h.358C16.726,99.592,18.468,97.993,19.972,96.011Z" transform="translate(-5.458 14.59)" fill="#d2bbe6"/>
        <path id="Path_110" data-name="Path 110" d="M60.5,60.214v.358h.358v.716h.358a6.881,6.881,0,0,0,1.074,2.339,20.326,20.326,0,0,0,1.79,2.148c1.385,1.671,2.769,3.127,4.3,4.679a61.2,61.2,0,0,0,4.679,4.3c1.432,1.17,3.27,1.838,4.679,3.056H79.88c1.623-1.074,1.623-2.507,1.074-4.13-.43-1.289-.764-2.817-1.074-4.13-.334-1.385-.5-2.721-.716-4.13-.1-.645-.621-1.456-.716-2.148-.119-.74-.286-1.289-.358-1.981h.358a10.2,10.2,0,0,0,1.265,3.581c.549,1.17.883,2.435,1.432,3.581a40.756,40.756,0,0,1,1.623,3.772,5.521,5.521,0,0,0,2.148,3.414h1.79c2.363-1.6,2.865-4.774,3.581-7.185A28.419,28.419,0,0,0,91,64.678c.1-.6.263-1.122.358-1.79.1-.6.5-.931.358-1.623V60.19c.549-.6.358-1.576.358-2.339a15.374,15.374,0,0,1,.358-2.339,12.592,12.592,0,0,0-.358-4.679,14.792,14.792,0,0,0-.716-2.339,8.19,8.19,0,0,0-2.148-2.507c-1.361-1.1-3.1-1.552-4.679-2.339h-1.79v-.358h-1.79l-1.432-.716h-1.79c-1.337-.5-2.674-.812-3.939-1.432H71.644c-.525.358-1.194.716-1.074,1.432h-.358l-.358.716H69.5v.358h-.358c.215,1.265-2.817,3.175-3.581,4.13a42.909,42.909,0,0,0-3.414,4.13,12,12,0,0,0-1.981,4.13,8.093,8.093,0,0,0,0,2.148C60.233,58.924,60.663,59.473,60.5,60.214Zm17.593.358h-.358v-.358h.358Z" transform="translate(54.816 29.362)" fill="#d2bbe6"/>
        <path id="Path_111" data-name="Path 111" d="M30.457,49.517h.716c0-2.65,1.361-5.013,2.148-7.352a19.543,19.543,0,0,1,1.623-3.772c.382-.645.477-1.337.907-1.981a4.379,4.379,0,0,1,1.79-1.265h.716a9.766,9.766,0,0,1,1.623,1.432,11.469,11.469,0,0,1,.907,1.981c.573,1.217,1.241,2.363,1.79,3.581.549,1.194.74,2.554,1.265,3.772a8.459,8.459,0,0,1,.907,3.581h.716a10.7,10.7,0,0,0,4.3-7.185,24.865,24.865,0,0,0,0-3.772,14.933,14.933,0,0,0,0-1.79c-.1-.645-.31-.979-.358-1.623,0-2.148-.955-4.13-1.432-6.111A33.836,33.836,0,0,0,46.093,22.9c-.931-2.029-1.981-4.178-2.7-6.278a14.838,14.838,0,0,0-1.432-3.056,10,10,0,0,0-2.507-2.507H36.234c-1.146.955-1.91,1.385-2.507,2.7-.477,1-.931,2.053-1.432,3.056a46.921,46.921,0,0,0-2.507,6.111c-.692,2.1-1.456,4.178-2.148,6.278a18.712,18.712,0,0,0-1.074,5.92h-.358a65.587,65.587,0,0,0,0,7.185A10.33,10.33,0,0,0,30.457,49.517Z" transform="translate(9.121 -11.06)" fill="#d2bbe6"/>
      </g>
    </g>
  </g>
</svg>
